<?xml version="1.0" encoding="UTF-8"?>
<svg xmlns="http://www.w3.org/2000/svg" xmlns:xlink="http://www.w3.org/1999/xlink" width="20px" height="20px" viewBox="0 0 20 20" version="1.1">
<g id="surface1">
<path style=" stroke:none;fill-rule:nonzero;fill:rgb(3.137255%,3.137255%,3.921569%);fill-opacity:1;" d="M 10.480469 4 C 10.566406 4.066406 10.648438 4.132812 10.730469 4.203125 C 10.867188 4.34375 10.867188 4.34375 11.039062 4.398438 C 11.09375 4.464844 11.148438 4.53125 11.199219 4.601562 C 11.261719 4.652344 11.324219 4.703125 11.390625 4.753906 C 11.59375 4.917969 11.792969 5.089844 11.984375 5.265625 C 12.027344 5.304688 12.027344 5.304688 12.070312 5.34375 C 12.191406 5.457031 12.269531 5.53125 12.328125 5.6875 C 12.320312 5.828125 12.285156 5.871094 12.191406 5.972656 C 12.152344 6.011719 12.152344 6.011719 12.113281 6.054688 C 12.039062 6.121094 12.039062 6.121094 11.921875 6.160156 C 11.921875 6.1875 11.921875 6.210938 11.921875 6.238281 C 11.871094 6.289062 11.871094 6.289062 11.796875 6.347656 C 11.632812 6.488281 11.484375 6.636719 11.332031 6.789062 C 11.285156 6.839844 11.234375 6.890625 11.1875 6.941406 C 11.113281 7.019531 11.035156 7.097656 10.960938 7.175781 C 10.890625 7.25 10.816406 7.324219 10.742188 7.402344 C 10.71875 7.425781 10.695312 7.449219 10.675781 7.472656 C 10.523438 7.621094 10.421875 7.671875 10.199219 7.679688 C 10.109375 7.664062 10.109375 7.664062 10.039062 7.601562 C 9.96875 7.367188 9.949219 7.160156 9.953125 6.921875 C 9.957031 6.890625 9.957031 6.859375 9.957031 6.824219 C 9.957031 6.75 9.957031 6.675781 9.960938 6.601562 C 9.109375 6.542969 8.222656 6.890625 7.574219 7.433594 C 6.734375 8.1875 6.25 9.113281 6.164062 10.25 C 6.132812 11.28125 6.371094 12.25 7.011719 13.070312 C 7.074219 13.152344 7.117188 13.226562 7.160156 13.320312 C 7.1875 13.320312 7.210938 13.320312 7.238281 13.320312 C 7.238281 13.347656 7.238281 13.371094 7.238281 13.398438 C 7.261719 13.410156 7.285156 13.421875 7.308594 13.429688 C 7.410156 13.484375 7.480469 13.546875 7.566406 13.621094 C 7.675781 13.722656 7.675781 13.722656 7.800781 13.800781 C 7.808594 13.777344 7.816406 13.757812 7.828125 13.734375 C 8.109375 13.226562 8.660156 13.003906 9.191406 12.847656 C 9.300781 12.820312 9.410156 12.789062 9.519531 12.761719 C 9.515625 12.734375 9.507812 12.710938 9.503906 12.6875 C 9.476562 12.578125 9.449219 12.46875 9.421875 12.359375 C 9.414062 12.320312 9.402344 12.28125 9.394531 12.242188 C 9.347656 12.042969 9.304688 11.84375 9.28125 11.640625 C 9.253906 11.652344 9.226562 11.667969 9.195312 11.683594 C 9.160156 11.699219 9.125 11.71875 9.085938 11.738281 C 9.050781 11.753906 9.015625 11.773438 8.980469 11.792969 C 8.707031 11.921875 8.382812 11.925781 8.09375 11.855469 C 7.75 11.714844 7.453125 11.433594 7.292969 11.101562 C 7.21875 10.898438 7.195312 10.722656 7.191406 10.507812 C 7.1875 10.433594 7.1875 10.433594 7.1875 10.359375 C 7.183594 10.257812 7.179688 10.15625 7.179688 10.054688 C 7.171875 9.796875 7.152344 9.570312 7.078125 9.320312 C 7.097656 9.105469 7.097656 9.105469 7.199219 9 C 7.886719 8.914062 8.636719 9.140625 9.199219 9.535156 C 9.460938 9.742188 9.640625 9.988281 9.71875 10.320312 C 9.753906 10.640625 9.71875 10.902344 9.601562 11.199219 C 9.578125 11.183594 9.558594 11.167969 9.535156 11.148438 C 9.507812 11.128906 9.480469 11.105469 9.449219 11.085938 C 9.421875 11.0625 9.394531 11.042969 9.367188 11.019531 C 9.285156 10.964844 9.207031 10.921875 9.121094 10.878906 C 9.144531 10.90625 9.167969 10.933594 9.195312 10.964844 C 9.496094 11.320312 9.792969 11.695312 10 12.121094 C 10.011719 12.09375 10.023438 12.070312 10.035156 12.046875 C 10.402344 11.285156 10.796875 10.550781 11.328125 9.890625 C 11.402344 9.804688 11.402344 9.804688 11.441406 9.71875 C 11.007812 10.085938 11.007812 10.085938 10.601562 10.480469 C 10.480469 10.441406 10.480469 10.441406 10.433594 10.359375 C 10.265625 9.898438 10.210938 9.429688 10.40625 8.96875 C 10.625 8.535156 10.933594 8.253906 11.386719 8.078125 C 11.535156 8.035156 11.675781 8.027344 11.828125 8.027344 C 11.890625 8.027344 11.949219 8.027344 12.007812 8.023438 C 12.101562 8.023438 12.195312 8.023438 12.289062 8.023438 C 12.378906 8.019531 12.46875 8.019531 12.558594 8.019531 C 12.585938 8.019531 12.613281 8.019531 12.640625 8.019531 C 12.898438 8.011719 13.113281 7.953125 13.308594 7.789062 C 13.398438 7.71875 13.398438 7.71875 13.507812 7.71875 C 13.601562 7.761719 13.601562 7.761719 13.644531 7.828125 C 13.6875 7.9375 13.6875 8.019531 13.683594 8.132812 C 13.679688 8.175781 13.679688 8.21875 13.675781 8.261719 C 13.671875 8.328125 13.671875 8.328125 13.671875 8.394531 C 13.667969 8.441406 13.664062 8.484375 13.664062 8.53125 C 13.617188 9.402344 13.472656 10.257812 12.859375 10.914062 C 12.503906 11.226562 12.101562 11.265625 11.644531 11.25 C 11.457031 11.230469 11.292969 11.160156 11.121094 11.078125 C 11.003906 11.355469 10.910156 11.628906 10.832031 11.917969 C 10.820312 11.953125 10.8125 11.992188 10.800781 12.027344 C 10.730469 12.285156 10.695312 12.535156 10.679688 12.800781 C 10.71875 12.808594 10.757812 12.820312 10.800781 12.832031 C 11.351562 12.984375 11.867188 13.230469 12.199219 13.71875 C 12.199219 13.746094 12.199219 13.773438 12.199219 13.800781 C 12.257812 13.757812 12.316406 13.710938 12.371094 13.667969 C 12.40625 13.644531 12.4375 13.617188 12.46875 13.59375 C 12.558594 13.523438 12.558594 13.523438 12.625 13.449219 C 12.679688 13.398438 12.679688 13.398438 12.761719 13.398438 C 12.769531 13.378906 12.78125 13.355469 12.792969 13.332031 C 12.84375 13.230469 12.90625 13.15625 12.984375 13.074219 C 13.460938 12.480469 13.699219 11.773438 13.820312 11.03125 C 13.855469 10.835938 13.890625 10.703125 14.039062 10.558594 C 14.25 10.488281 14.476562 10.507812 14.699219 10.507812 C 14.746094 10.507812 14.796875 10.503906 14.847656 10.503906 C 14.894531 10.503906 14.941406 10.503906 14.992188 10.503906 C 15.058594 10.503906 15.058594 10.503906 15.125 10.5 C 15.265625 10.523438 15.3125 10.566406 15.398438 10.679688 C 15.585938 11.734375 15.042969 13.085938 14.453125 13.933594 C 14.097656 14.4375 14.097656 14.4375 13.921875 14.601562 C 13.894531 14.601562 13.867188 14.601562 13.839844 14.601562 C 13.828125 14.640625 13.8125 14.679688 13.800781 14.71875 C 13.738281 14.773438 13.738281 14.773438 13.660156 14.828125 C 13.542969 14.914062 13.425781 15.003906 13.316406 15.09375 C 12.949219 15.382812 12.492188 15.648438 12.039062 15.761719 C 11.984375 15.773438 11.929688 15.789062 11.875 15.804688 C 11.84375 15.8125 11.8125 15.820312 11.78125 15.832031 C 11.714844 15.847656 11.652344 15.867188 11.589844 15.882812 C 11.101562 16.015625 10.628906 16.054688 10.128906 16.050781 C 10.035156 16.050781 9.9375 16.054688 9.84375 16.054688 C 9.269531 16.058594 8.707031 15.984375 8.15625 15.8125 C 8.121094 15.800781 8.089844 15.792969 8.054688 15.78125 C 7.769531 15.691406 7.511719 15.566406 7.246094 15.425781 C 7.144531 15.375 7.070312 15.34375 6.960938 15.320312 C 6.917969 15.28125 6.878906 15.242188 6.839844 15.199219 C 6.8125 15.199219 6.789062 15.199219 6.761719 15.199219 C 6.691406 15.132812 6.625 15.066406 6.558594 15 C 6.484375 14.929688 6.410156 14.863281 6.332031 14.796875 C 5.960938 14.457031 5.65625 14.101562 5.390625 13.675781 C 5.324219 13.558594 5.324219 13.558594 5.238281 13.480469 C 5.214844 13.425781 5.191406 13.371094 5.167969 13.316406 C 5.15625 13.28125 5.140625 13.25 5.128906 13.214844 C 5.113281 13.179688 5.097656 13.144531 5.085938 13.109375 C 5.070312 13.070312 5.054688 13.035156 5.042969 12.996094 C 4.414062 11.386719 4.410156 9.507812 5.089844 7.90625 C 5.335938 7.359375 5.675781 6.882812 6.078125 6.441406 C 6.109375 6.40625 6.136719 6.375 6.167969 6.34375 C 7.167969 5.28125 8.554688 4.914062 9.960938 4.800781 C 9.960938 4.753906 9.957031 4.710938 9.957031 4.664062 C 9.957031 4.605469 9.957031 4.546875 9.953125 4.488281 C 9.953125 4.460938 9.953125 4.429688 9.953125 4.402344 C 9.949219 4.125 9.949219 4.125 10.039062 4 C 10.210938 3.894531 10.300781 3.925781 10.480469 4 Z M 10.480469 4 "/>
<path style=" stroke:none;fill-rule:nonzero;fill:rgb(20.784314%,21.176471%,21.176471%);fill-opacity:1;" d="M 9.773438 6.515625 C 9.90625 6.519531 9.90625 6.519531 10.039062 6.519531 C 10.039062 6.746094 10.039062 6.96875 10.039062 7.199219 C 10.078125 7.199219 10.121094 7.199219 10.160156 7.199219 C 10.160156 7.171875 10.160156 7.148438 10.160156 7.121094 C 10.203125 7.128906 10.246094 7.140625 10.289062 7.152344 C 10.441406 7.175781 10.441406 7.175781 10.550781 7.074219 C 10.640625 6.964844 10.640625 6.964844 10.699219 6.855469 C 10.769531 6.742188 10.84375 6.699219 10.960938 6.640625 C 10.980469 6.71875 10.980469 6.71875 11 6.800781 C 11.078125 6.8125 11.160156 6.828125 11.238281 6.839844 C 11.082031 7.03125 10.914062 7.214844 10.742188 7.394531 C 10.722656 7.417969 10.699219 7.441406 10.675781 7.464844 C 10.527344 7.621094 10.421875 7.671875 10.199219 7.679688 C 10.109375 7.664062 10.109375 7.664062 10.039062 7.601562 C 9.96875 7.367188 9.949219 7.160156 9.953125 6.921875 C 9.957031 6.8125 9.957031 6.707031 9.960938 6.601562 C 9.722656 6.601562 9.484375 6.601562 9.238281 6.601562 C 9.238281 6.585938 9.238281 6.574219 9.238281 6.558594 C 9.421875 6.523438 9.589844 6.515625 9.773438 6.515625 Z M 9.773438 6.515625 "/>
<path style=" stroke:none;fill-rule:nonzero;fill:rgb(7.843137%,7.843137%,7.843137%);fill-opacity:1;" d="M 14.699219 10.507812 C 14.773438 10.503906 14.773438 10.503906 14.847656 10.503906 C 14.894531 10.503906 14.941406 10.503906 14.992188 10.503906 C 15.058594 10.503906 15.058594 10.503906 15.125 10.5 C 15.265625 10.523438 15.3125 10.566406 15.398438 10.679688 C 15.5 11.234375 15.355469 12.246094 15.039062 12.71875 C 15.003906 12.542969 14.996094 12.445312 15.078125 12.28125 C 15.105469 12.28125 15.132812 12.28125 15.160156 12.28125 C 15.148438 12.214844 15.132812 12.148438 15.121094 12.078125 C 15.144531 12.078125 15.171875 12.078125 15.199219 12.078125 C 15.191406 12.035156 15.183594 11.992188 15.175781 11.949219 C 15.160156 11.800781 15.160156 11.800781 15.199219 11.679688 C 15.226562 11.679688 15.253906 11.679688 15.28125 11.679688 C 15.28125 11.335938 15.28125 10.992188 15.28125 10.640625 C 14.988281 10.640625 14.699219 10.640625 14.398438 10.640625 C 14.375 10.707031 14.347656 10.773438 14.320312 10.839844 C 14.28125 10.867188 14.242188 10.894531 14.199219 10.921875 C 14.171875 10.90625 14.148438 10.894531 14.121094 10.878906 C 14.121094 10.855469 14.121094 10.828125 14.121094 10.800781 C 14.039062 10.839844 14.039062 10.839844 13.960938 10.878906 C 13.960938 10.984375 13.960938 11.089844 13.960938 11.199219 C 13.921875 11.214844 13.878906 11.226562 13.839844 11.238281 C 13.847656 11.277344 13.855469 11.3125 13.863281 11.351562 C 13.886719 11.535156 13.886719 11.535156 13.839844 11.640625 C 13.800781 11.652344 13.761719 11.667969 13.71875 11.679688 C 13.746094 11.507812 13.773438 11.332031 13.800781 11.160156 C 13.808594 11.101562 13.808594 11.101562 13.816406 11.042969 C 13.851562 10.84375 13.886719 10.703125 14.039062 10.558594 C 14.25 10.488281 14.476562 10.507812 14.699219 10.507812 Z M 14.121094 10.921875 C 14.199219 10.960938 14.199219 10.960938 14.199219 10.960938 Z M 14.121094 10.921875 "/>
<path style=" stroke:none;fill-rule:nonzero;fill:rgb(2.352941%,2.352941%,3.137255%);fill-opacity:1;" d="M 10.398438 9 C 10.449219 9.144531 10.429688 9.253906 10.398438 9.398438 C 10.398438 9.441406 10.398438 9.480469 10.398438 9.519531 C 10.425781 9.519531 10.453125 9.519531 10.480469 9.519531 C 10.472656 9.5625 10.464844 9.605469 10.457031 9.648438 C 10.441406 9.777344 10.4375 9.84375 10.480469 9.960938 C 10.507812 9.945312 10.53125 9.933594 10.558594 9.921875 C 10.640625 10 10.640625 10 10.679688 10.078125 C 10.707031 10.078125 10.734375 10.078125 10.761719 10.078125 C 10.785156 10.054688 10.8125 10.027344 10.839844 10 C 10.894531 9.972656 10.945312 9.945312 11 9.921875 C 11.027344 9.894531 11.054688 9.867188 11.078125 9.839844 C 11.105469 9.851562 11.132812 9.867188 11.160156 9.878906 C 11.160156 9.839844 11.160156 9.800781 11.160156 9.761719 C 11.238281 9.746094 11.320312 9.734375 11.398438 9.71875 C 11.253906 9.867188 11.105469 10.007812 10.953125 10.144531 C 10.773438 10.308594 10.773438 10.308594 10.601562 10.480469 C 10.480469 10.441406 10.480469 10.441406 10.433594 10.359375 C 10.277344 9.933594 10.230469 9.519531 10.359375 9.078125 C 10.375 9.054688 10.386719 9.027344 10.398438 9 Z M 10.398438 9 "/>
<path style=" stroke:none;fill-rule:nonzero;fill:rgb(7.843137%,7.843137%,8.627451%);fill-opacity:1;" d="M 6.761719 12.800781 C 6.878906 12.914062 6.976562 13.007812 7.039062 13.160156 C 6.960938 13.171875 6.882812 13.1875 6.800781 13.199219 C 6.785156 13.253906 6.773438 13.304688 6.761719 13.359375 C 6.707031 13.375 6.65625 13.386719 6.601562 13.398438 C 6.585938 13.453125 6.574219 13.503906 6.558594 13.558594 C 6.535156 13.558594 6.507812 13.558594 6.480469 13.558594 C 6.480469 13.585938 6.480469 13.613281 6.480469 13.640625 C 6.453125 13.640625 6.425781 13.640625 6.398438 13.640625 C 6.386719 13.679688 6.375 13.71875 6.359375 13.761719 C 6.320312 13.761719 6.28125 13.761719 6.238281 13.761719 C 6.253906 13.785156 6.265625 13.8125 6.28125 13.839844 C 6.242188 13.839844 6.199219 13.839844 6.160156 13.839844 C 6.160156 13.878906 6.160156 13.917969 6.160156 13.960938 C 6.121094 13.960938 6.082031 13.960938 6.039062 13.960938 C 6.027344 14.011719 6.011719 14.066406 6 14.121094 C 5.921875 14 5.921875 14 5.933594 13.890625 C 5.941406 13.863281 5.953125 13.832031 5.960938 13.800781 C 6 13.785156 6.039062 13.773438 6.078125 13.761719 C 6.078125 13.734375 6.078125 13.707031 6.078125 13.679688 C 6.105469 13.660156 6.132812 13.640625 6.164062 13.617188 C 6.296875 13.503906 6.386719 13.382812 6.488281 13.242188 C 6.558594 13.160156 6.558594 13.160156 6.648438 13.117188 C 6.671875 13.105469 6.695312 13.09375 6.71875 13.078125 C 6.753906 12.9375 6.753906 12.9375 6.761719 12.800781 Z M 6.761719 12.800781 "/>
<path style=" stroke:none;fill-rule:nonzero;fill:rgb(40.784314%,41.176471%,41.568627%);fill-opacity:1;" d="M 13.558594 7.761719 C 13.585938 7.773438 13.613281 7.785156 13.640625 7.800781 C 13.679688 7.925781 13.683594 8 13.679688 8.128906 C 13.675781 8.171875 13.675781 8.214844 13.671875 8.257812 C 13.601562 9.917969 13.601562 9.917969 13.28125 10.238281 C 13.246094 10.125 13.230469 10.0625 13.277344 9.949219 C 13.292969 9.925781 13.304688 9.902344 13.320312 9.878906 C 13.347656 9.878906 13.371094 9.878906 13.398438 9.878906 C 13.390625 9.847656 13.382812 9.8125 13.371094 9.777344 C 13.355469 9.605469 13.40625 9.515625 13.480469 9.359375 C 13.511719 9.265625 13.535156 9.175781 13.558594 9.078125 C 13.425781 9.121094 13.371094 9.144531 13.289062 9.265625 C 13.273438 9.296875 13.257812 9.328125 13.238281 9.359375 C 13.1875 9.332031 13.132812 9.308594 13.078125 9.28125 C 13.078125 9.253906 13.078125 9.226562 13.078125 9.199219 C 13.203125 9.089844 13.335938 9.003906 13.480469 8.921875 C 13.492188 8.933594 13.507812 8.945312 13.519531 8.960938 C 13.566406 8.707031 13.566406 8.460938 13.5625 8.203125 C 13.5625 8.160156 13.5625 8.117188 13.5625 8.074219 C 13.5625 7.96875 13.5625 7.863281 13.558594 7.761719 Z M 13.558594 7.761719 "/>
<path style=" stroke:none;fill-rule:nonzero;fill:rgb(7.058824%,7.058824%,8.235294%);fill-opacity:1;" d="M 5.574219 11.851562 C 5.597656 11.859375 5.617188 11.871094 5.640625 11.878906 C 5.640625 11.90625 5.640625 11.933594 5.640625 11.960938 C 5.613281 11.960938 5.585938 11.960938 5.558594 11.960938 C 5.535156 12.011719 5.507812 12.066406 5.480469 12.121094 C 5.441406 12.105469 5.402344 12.09375 5.359375 12.078125 C 5.359375 12.105469 5.359375 12.132812 5.359375 12.160156 C 5.332031 12.160156 5.308594 12.160156 5.28125 12.160156 C 5.28125 12.210938 5.28125 12.265625 5.28125 12.320312 C 5.253906 12.320312 5.226562 12.320312 5.199219 12.320312 C 5.199219 12.347656 5.199219 12.371094 5.199219 12.398438 C 5.171875 12.398438 5.148438 12.398438 5.121094 12.398438 C 5.109375 12.4375 5.09375 12.476562 5.082031 12.515625 C 5.039062 12.640625 5.039062 12.640625 5 12.71875 C 5.027344 12.71875 5.054688 12.71875 5.078125 12.71875 C 5.078125 12.8125 5.078125 12.90625 5.078125 13 C 4.972656 12.890625 4.941406 12.765625 4.890625 12.625 C 4.882812 12.597656 4.875 12.570312 4.863281 12.542969 C 4.78125 12.296875 4.78125 12.296875 4.839844 12.160156 C 4.867188 12.171875 4.894531 12.1875 4.921875 12.199219 C 4.921875 12.238281 4.921875 12.277344 4.921875 12.320312 C 4.945312 12.320312 4.972656 12.320312 5 12.320312 C 5 12.28125 5 12.242188 5 12.199219 C 5.039062 12.199219 5.078125 12.199219 5.121094 12.199219 C 5.121094 12.171875 5.121094 12.148438 5.121094 12.121094 C 5.144531 12.121094 5.171875 12.121094 5.199219 12.121094 C 5.214844 12.082031 5.226562 12.039062 5.238281 12 C 5.445312 11.835938 5.445312 11.835938 5.574219 11.851562 Z M 5.574219 11.851562 "/>
<path style=" stroke:none;fill-rule:nonzero;fill:rgb(60.392157%,60.392157%,60.784314%);fill-opacity:1;" d="M 14.160156 10.519531 C 14.335938 10.515625 14.511719 10.511719 14.691406 10.511719 C 14.765625 10.507812 14.765625 10.507812 14.84375 10.507812 C 14.890625 10.503906 14.9375 10.503906 14.988281 10.503906 C 15.03125 10.503906 15.078125 10.503906 15.121094 10.5 C 15.265625 10.523438 15.3125 10.566406 15.398438 10.679688 C 15.5 11.234375 15.355469 12.246094 15.039062 12.71875 C 15.003906 12.542969 14.996094 12.445312 15.078125 12.28125 C 15.105469 12.28125 15.132812 12.28125 15.160156 12.28125 C 15.140625 12.179688 15.140625 12.179688 15.121094 12.078125 C 15.144531 12.078125 15.171875 12.078125 15.199219 12.078125 C 15.191406 12.035156 15.183594 11.992188 15.175781 11.949219 C 15.160156 11.800781 15.160156 11.800781 15.199219 11.679688 C 15.226562 11.679688 15.253906 11.679688 15.28125 11.679688 C 15.28125 11.335938 15.28125 10.992188 15.28125 10.640625 C 15.175781 10.640625 15.070312 10.640625 14.960938 10.640625 C 14.960938 10.625 14.960938 10.613281 14.960938 10.601562 C 14.695312 10.585938 14.433594 10.574219 14.160156 10.558594 C 14.160156 10.546875 14.160156 10.535156 14.160156 10.519531 Z M 14.160156 10.519531 "/>
<path style=" stroke:none;fill-rule:nonzero;fill:rgb(13.333333%,13.333333%,13.72549%);fill-opacity:1;" d="M 10.921875 6.640625 C 11 6.71875 11 6.71875 11 6.800781 C 11.117188 6.820312 11.117188 6.820312 11.238281 6.839844 C 11.027344 7.097656 10.796875 7.328125 10.558594 7.558594 C 10.535156 7.519531 10.507812 7.480469 10.480469 7.441406 C 10.53125 7.378906 10.53125 7.378906 10.601562 7.320312 C 10.640625 7.320312 10.679688 7.320312 10.71875 7.320312 C 10.707031 7.253906 10.695312 7.1875 10.679688 7.121094 C 10.640625 7.105469 10.601562 7.09375 10.558594 7.078125 C 10.761719 6.734375 10.761719 6.734375 10.921875 6.640625 Z M 10.921875 6.640625 "/>
<path style=" stroke:none;fill-rule:nonzero;fill:rgb(7.45098%,7.45098%,8.235294%);fill-opacity:1;" d="M 9.640625 5.121094 C 9.691406 5.144531 9.746094 5.171875 9.800781 5.199219 C 9.800781 5.226562 9.800781 5.253906 9.800781 5.28125 C 9.773438 5.28125 9.746094 5.28125 9.71875 5.28125 C 9.71875 5.304688 9.71875 5.332031 9.71875 5.359375 C 9.652344 5.375 9.589844 5.386719 9.519531 5.398438 C 9.519531 5.425781 9.519531 5.453125 9.519531 5.480469 C 9.492188 5.480469 9.46875 5.480469 9.441406 5.480469 C 9.453125 5.53125 9.464844 5.585938 9.480469 5.640625 C 9.453125 5.640625 9.425781 5.640625 9.398438 5.640625 C 9.398438 5.667969 9.398438 5.691406 9.398438 5.71875 C 9.28125 5.800781 9.28125 5.800781 9.160156 5.839844 C 9.160156 5.867188 9.160156 5.894531 9.160156 5.921875 C 9.121094 5.921875 9.082031 5.921875 9.039062 5.921875 C 9.039062 5.945312 9.039062 5.972656 9.039062 6 C 9 6 8.960938 6 8.921875 6 C 8.933594 6.039062 8.945312 6.078125 8.960938 6.121094 C 8.90625 6.09375 8.855469 6.066406 8.800781 6.039062 C 8.800781 6 8.800781 5.960938 8.800781 5.921875 C 8.828125 5.921875 8.851562 5.921875 8.878906 5.921875 C 8.878906 5.894531 8.878906 5.867188 8.878906 5.839844 C 8.90625 5.839844 8.933594 5.839844 8.960938 5.839844 C 8.960938 5.8125 8.960938 5.789062 8.960938 5.761719 C 9 5.761719 9.039062 5.761719 9.078125 5.761719 C 9.082031 5.738281 9.082031 5.714844 9.085938 5.691406 C 9.136719 5.554688 9.246094 5.492188 9.359375 5.398438 C 9.375 5.375 9.386719 5.347656 9.398438 5.320312 C 9.425781 5.320312 9.453125 5.320312 9.480469 5.320312 C 9.480469 5.292969 9.480469 5.265625 9.480469 5.238281 C 9.53125 5.226562 9.585938 5.214844 9.640625 5.199219 C 9.640625 5.171875 9.640625 5.148438 9.640625 5.121094 Z M 9.640625 5.121094 "/>
<path style=" stroke:none;fill-rule:nonzero;fill:rgb(7.843137%,7.843137%,8.627451%);fill-opacity:1;" d="M 6.039062 8.71875 C 6.078125 8.773438 6.121094 8.824219 6.160156 8.878906 C 6.132812 8.878906 6.105469 8.878906 6.078125 8.878906 C 6.066406 8.90625 6.054688 8.933594 6.039062 8.960938 C 6.015625 8.976562 5.988281 8.996094 5.960938 9.011719 C 5.863281 9.09375 5.847656 9.160156 5.800781 9.28125 C 5.71875 9.371094 5.71875 9.371094 5.640625 9.441406 C 5.613281 9.441406 5.585938 9.441406 5.558594 9.441406 C 5.558594 9.464844 5.558594 9.492188 5.558594 9.519531 C 5.519531 9.519531 5.480469 9.519531 5.441406 9.519531 C 5.425781 9.558594 5.414062 9.597656 5.398438 9.640625 C 5.375 9.640625 5.347656 9.640625 5.320312 9.640625 C 5.320312 9.667969 5.320312 9.691406 5.320312 9.71875 C 5.265625 9.695312 5.214844 9.667969 5.160156 9.640625 C 5.214844 9.503906 5.277344 9.4375 5.398438 9.359375 C 5.425781 9.359375 5.453125 9.359375 5.480469 9.359375 C 5.480469 9.320312 5.480469 9.28125 5.480469 9.238281 C 5.507812 9.238281 5.53125 9.238281 5.558594 9.238281 C 5.558594 9.214844 5.558594 9.1875 5.558594 9.160156 C 5.625 9.097656 5.625 9.097656 5.710938 9.023438 C 5.824219 8.925781 5.933594 8.828125 6.039062 8.71875 Z M 6.039062 8.71875 "/>
<path style=" stroke:none;fill-rule:nonzero;fill:rgb(7.45098%,7.45098%,8.235294%);fill-opacity:1;" d="M 11.078125 13.761719 C 11.09375 13.785156 11.105469 13.8125 11.121094 13.839844 C 11.144531 13.839844 11.171875 13.839844 11.199219 13.839844 C 11.199219 13.867188 11.199219 13.894531 11.199219 13.921875 C 11.171875 13.921875 11.148438 13.921875 11.121094 13.921875 C 11.105469 13.972656 11.09375 14.027344 11.078125 14.078125 C 11.054688 14.082031 11.03125 14.085938 11.003906 14.085938 C 10.976562 14.097656 10.949219 14.109375 10.921875 14.121094 C 10.890625 14.1875 10.863281 14.253906 10.839844 14.320312 C 10.761719 14.414062 10.761719 14.414062 10.679688 14.480469 C 10.652344 14.480469 10.628906 14.480469 10.601562 14.480469 C 10.601562 14.507812 10.601562 14.53125 10.601562 14.558594 C 10.558594 14.558594 10.519531 14.558594 10.480469 14.558594 C 10.480469 14.597656 10.480469 14.640625 10.480469 14.679688 C 10.425781 14.652344 10.375 14.628906 10.320312 14.601562 C 10.332031 14.546875 10.347656 14.496094 10.359375 14.441406 C 10.382812 14.4375 10.410156 14.433594 10.433594 14.433594 C 10.464844 14.421875 10.492188 14.410156 10.519531 14.398438 C 10.546875 14.332031 10.574219 14.265625 10.601562 14.199219 C 10.640625 14.1875 10.679688 14.171875 10.71875 14.160156 C 10.769531 14.078125 10.769531 14.078125 10.800781 14 C 10.828125 14 10.851562 14 10.878906 14 C 10.878906 13.972656 10.878906 13.945312 10.878906 13.921875 C 10.90625 13.921875 10.933594 13.921875 10.960938 13.921875 C 10.960938 13.878906 10.960938 13.839844 10.960938 13.800781 C 11 13.785156 11.039062 13.773438 11.078125 13.761719 Z M 11.078125 13.761719 "/>
<path style=" stroke:none;fill-rule:nonzero;fill:rgb(33.72549%,33.72549%,34.509804%);fill-opacity:1;" d="M 11.878906 15.441406 C 11.917969 15.453125 11.960938 15.464844 12 15.480469 C 12 15.53125 12 15.585938 12 15.640625 C 12.097656 15.625 12.097656 15.625 12.199219 15.601562 C 12.214844 15.574219 12.226562 15.546875 12.238281 15.519531 C 12.332031 15.519531 12.425781 15.519531 12.519531 15.519531 C 12.539062 15.558594 12.539062 15.558594 12.558594 15.601562 C 12.539062 15.605469 12.515625 15.609375 12.492188 15.613281 C 12.460938 15.621094 12.433594 15.628906 12.402344 15.636719 C 12.375 15.640625 12.34375 15.648438 12.3125 15.65625 C 12.230469 15.671875 12.230469 15.671875 12.199219 15.761719 C 12.128906 15.769531 12.058594 15.777344 11.988281 15.785156 C 11.796875 15.8125 11.609375 15.871094 11.417969 15.925781 C 11.300781 15.957031 11.203125 15.96875 11.078125 15.960938 C 11.1875 15.902344 11.234375 15.878906 11.359375 15.878906 C 11.375 15.839844 11.386719 15.800781 11.398438 15.761719 C 11.628906 15.753906 11.628906 15.753906 11.71875 15.800781 C 11.707031 15.761719 11.695312 15.722656 11.679688 15.679688 C 11.707031 15.640625 11.734375 15.601562 11.761719 15.558594 C 11.785156 15.558594 11.8125 15.558594 11.839844 15.558594 C 11.851562 15.519531 11.867188 15.480469 11.878906 15.441406 Z M 11.878906 15.441406 "/>
<path style=" stroke:none;fill-rule:nonzero;fill:rgb(7.058824%,7.45098%,8.235294%);fill-opacity:1;" d="M 13.039062 9.238281 C 13.105469 9.292969 13.171875 9.34375 13.238281 9.398438 C 13.175781 9.46875 13.109375 9.535156 13.039062 9.601562 C 13.011719 9.601562 12.988281 9.601562 12.960938 9.601562 C 12.960938 9.625 12.960938 9.652344 12.960938 9.679688 C 12.90625 9.679688 12.855469 9.679688 12.800781 9.679688 C 12.800781 9.71875 12.800781 9.757812 12.800781 9.800781 C 12.773438 9.800781 12.746094 9.800781 12.71875 9.800781 C 12.71875 9.828125 12.71875 9.851562 12.71875 9.878906 C 12.667969 9.855469 12.613281 9.828125 12.558594 9.800781 C 12.59375 9.722656 12.59375 9.722656 12.640625 9.640625 C 12.679688 9.625 12.71875 9.613281 12.761719 9.601562 C 12.761719 9.574219 12.761719 9.546875 12.761719 9.519531 C 12.800781 9.519531 12.839844 9.519531 12.878906 9.519531 C 12.882812 9.496094 12.886719 9.472656 12.890625 9.449219 C 12.921875 9.347656 12.960938 9.308594 13.039062 9.238281 Z M 13.039062 9.238281 "/>
<path style=" stroke:none;fill-rule:nonzero;fill:rgb(29.411765%,29.411765%,29.803922%);fill-opacity:1;" d="M 9.480469 12.359375 C 9.519531 12.375 9.558594 12.386719 9.601562 12.398438 C 9.601562 12.496094 9.605469 12.59375 9.609375 12.691406 C 9.609375 12.71875 9.609375 12.746094 9.609375 12.777344 C 9.613281 12.980469 9.613281 12.980469 9.539062 13.078125 C 9.519531 13.09375 9.5 13.105469 9.480469 13.121094 C 9.453125 13.105469 9.425781 13.09375 9.398438 13.078125 C 9.398438 13.054688 9.398438 13.027344 9.398438 13 C 9.375 13 9.347656 13 9.320312 13 C 9.320312 12.972656 9.320312 12.945312 9.320312 12.921875 C 9.285156 12.929688 9.25 12.941406 9.214844 12.953125 C 9.167969 12.96875 9.121094 12.984375 9.074219 12.996094 C 9.03125 13.011719 8.984375 13.027344 8.9375 13.042969 C 8.8125 13.078125 8.6875 13.101562 8.558594 13.121094 C 8.6875 13.007812 8.808594 12.964844 8.972656 12.917969 C 9.019531 12.902344 9.0625 12.890625 9.109375 12.875 C 9.152344 12.863281 9.195312 12.851562 9.238281 12.839844 C 9.273438 12.832031 9.304688 12.820312 9.335938 12.8125 C 9.398438 12.792969 9.457031 12.777344 9.519531 12.761719 C 9.5 12.5625 9.5 12.5625 9.480469 12.359375 Z M 9.480469 12.359375 "/>
<path style=" stroke:none;fill-rule:nonzero;fill:rgb(42.352941%,42.352941%,42.352941%);fill-opacity:1;" d="M 7.160156 9.519531 C 7.199219 9.539062 7.199219 9.539062 7.238281 9.558594 C 7.265625 9.683594 7.265625 9.683594 7.28125 9.800781 C 7.292969 9.800781 7.304688 9.800781 7.320312 9.800781 C 7.332031 9.890625 7.347656 9.984375 7.359375 10.078125 C 7.398438 10.09375 7.4375 10.105469 7.480469 10.121094 C 7.441406 10.132812 7.402344 10.144531 7.359375 10.160156 C 7.359375 10.1875 7.359375 10.210938 7.359375 10.238281 C 7.332031 10.238281 7.308594 10.238281 7.28125 10.238281 C 7.292969 10.515625 7.304688 10.792969 7.320312 11.078125 C 7.191406 10.886719 7.195312 10.699219 7.1875 10.46875 C 7.1875 10.441406 7.1875 10.414062 7.183594 10.386719 C 7.183594 10.300781 7.179688 10.214844 7.175781 10.128906 C 7.175781 10.070312 7.175781 10.011719 7.171875 9.949219 C 7.167969 9.808594 7.164062 9.664062 7.160156 9.519531 Z M 7.160156 9.519531 "/>
<path style=" stroke:none;fill-rule:nonzero;fill:rgb(7.843137%,7.843137%,8.627451%);fill-opacity:1;" d="M 7.558594 14.761719 C 7.613281 14.785156 7.664062 14.8125 7.71875 14.839844 C 7.664062 14.964844 7.640625 15 7.519531 15.078125 C 7.5 15.101562 7.480469 15.121094 7.460938 15.144531 C 7.398438 15.199219 7.398438 15.199219 7.28125 15.199219 C 7.292969 15.238281 7.304688 15.277344 7.320312 15.320312 C 7.347656 15.332031 7.371094 15.347656 7.398438 15.359375 C 7.398438 15.398438 7.398438 15.4375 7.398438 15.480469 C 7.261719 15.429688 7.152344 15.371094 7.039062 15.28125 C 7.078125 15.28125 7.121094 15.28125 7.160156 15.28125 C 7.171875 15.242188 7.1875 15.199219 7.199219 15.160156 C 7.226562 15.160156 7.253906 15.160156 7.28125 15.160156 C 7.285156 15.136719 7.292969 15.109375 7.296875 15.085938 C 7.320312 15 7.320312 15 7.359375 14.921875 C 7.386719 14.921875 7.414062 14.921875 7.441406 14.921875 C 7.441406 14.894531 7.441406 14.867188 7.441406 14.839844 C 7.480469 14.839844 7.519531 14.839844 7.558594 14.839844 C 7.558594 14.8125 7.558594 14.789062 7.558594 14.761719 Z M 7.558594 14.761719 "/>
<path style=" stroke:none;fill-rule:nonzero;fill:rgb(38.431373%,38.431373%,38.431373%);fill-opacity:1;" d="M 11.820312 8.03125 C 11.847656 8.03125 11.878906 8.03125 11.910156 8.03125 C 12 8.03125 12.09375 8.035156 12.1875 8.035156 C 12.25 8.035156 12.3125 8.035156 12.375 8.035156 C 12.53125 8.035156 12.6875 8.039062 12.839844 8.039062 C 12.839844 8.054688 12.839844 8.066406 12.839844 8.078125 C 12.535156 8.09375 12.234375 8.105469 11.921875 8.121094 C 11.90625 8.160156 11.894531 8.199219 11.878906 8.238281 C 11.855469 8.238281 11.828125 8.238281 11.800781 8.238281 C 11.800781 8.265625 11.800781 8.292969 11.800781 8.320312 C 11.746094 8.320312 11.695312 8.320312 11.640625 8.320312 C 11.640625 8.347656 11.640625 8.371094 11.640625 8.398438 C 11.613281 8.398438 11.585938 8.398438 11.558594 8.398438 C 11.546875 8.359375 11.535156 8.320312 11.519531 8.28125 C 11.546875 8.28125 11.574219 8.28125 11.601562 8.28125 C 11.601562 8.226562 11.601562 8.175781 11.601562 8.121094 C 11.535156 8.121094 11.46875 8.121094 11.398438 8.121094 C 11.546875 8.023438 11.652344 8.03125 11.820312 8.03125 Z M 11.820312 8.03125 "/>
<path style=" stroke:none;fill-rule:nonzero;fill:rgb(33.72549%,33.72549%,34.509804%);fill-opacity:1;" d="M 8.359375 11.398438 C 8.398438 11.417969 8.398438 11.417969 8.441406 11.441406 C 8.402344 11.460938 8.402344 11.460938 8.359375 11.480469 C 8.359375 11.453125 8.359375 11.425781 8.359375 11.398438 Z M 8.320312 11.480469 C 8.414062 11.628906 8.398438 11.648438 8.359375 11.839844 C 8.617188 11.820312 8.617188 11.820312 8.878906 11.800781 C 8.675781 11.9375 8.4375 11.902344 8.199219 11.878906 C 8.027344 11.828125 7.886719 11.765625 7.761719 11.640625 C 7.800781 11.625 7.839844 11.613281 7.878906 11.601562 C 7.894531 11.625 7.90625 11.652344 7.921875 11.679688 C 8.019531 11.707031 8.019531 11.707031 8.121094 11.71875 C 8.121094 11.695312 8.121094 11.667969 8.121094 11.640625 C 8.183594 11.585938 8.25 11.53125 8.320312 11.480469 Z M 8.320312 11.480469 "/>
<path style=" stroke:none;fill-rule:nonzero;fill:rgb(41.176471%,41.176471%,41.568627%);fill-opacity:1;" d="M 10.398438 9 C 10.449219 9.144531 10.429688 9.253906 10.398438 9.398438 C 10.398438 9.441406 10.398438 9.480469 10.398438 9.519531 C 10.425781 9.519531 10.453125 9.519531 10.480469 9.519531 C 10.472656 9.558594 10.464844 9.597656 10.457031 9.640625 C 10.441406 9.757812 10.445312 9.855469 10.460938 9.96875 C 10.480469 10.121094 10.480469 10.121094 10.398438 10.238281 C 10.265625 9.832031 10.21875 9.402344 10.398438 9 Z M 10.398438 9 "/>
<path style=" stroke:none;fill-rule:nonzero;fill:rgb(50.980392%,50.980392%,50.980392%);fill-opacity:1;" d="M 6.160156 9.679688 C 6.171875 9.679688 6.1875 9.679688 6.199219 9.679688 C 6.199219 9.710938 6.195312 9.738281 6.195312 9.769531 C 6.152344 10.527344 6.152344 10.527344 6.222656 11.277344 C 6.238281 11.386719 6.242188 11.488281 6.238281 11.601562 C 6.074219 11.4375 6.070312 11.230469 6.070312 11.007812 C 6.070312 10.957031 6.070312 10.90625 6.070312 10.851562 C 6.070312 10.8125 6.070312 10.8125 6.070312 10.769531 C 6.070312 10.691406 6.070312 10.609375 6.070312 10.53125 C 6.070312 10.238281 6.085938 9.964844 6.160156 9.679688 Z M 6.160156 9.679688 "/>
<path style=" stroke:none;fill-rule:nonzero;fill:rgb(7.058824%,7.45098%,8.235294%);fill-opacity:1;" d="M 12.320312 15.039062 C 12.347656 15.039062 12.371094 15.039062 12.398438 15.039062 C 12.398438 15.066406 12.398438 15.09375 12.398438 15.121094 C 12.425781 15.132812 12.453125 15.144531 12.480469 15.160156 C 12.296875 15.355469 12.296875 15.355469 12.160156 15.398438 C 12.148438 15.492188 12.132812 15.585938 12.121094 15.679688 C 12.054688 15.667969 11.988281 15.652344 11.921875 15.640625 C 11.945312 15.625 11.972656 15.613281 12 15.601562 C 11.972656 15.535156 11.945312 15.46875 11.921875 15.398438 C 12.148438 15.199219 12.148438 15.199219 12.238281 15.199219 C 12.238281 15.171875 12.238281 15.148438 12.238281 15.121094 C 12.265625 15.121094 12.292969 15.121094 12.320312 15.121094 C 12.320312 15.09375 12.320312 15.066406 12.320312 15.039062 Z M 12.320312 15.039062 "/>
<path style=" stroke:none;fill-rule:nonzero;fill:rgb(7.843137%,7.843137%,8.627451%);fill-opacity:1;" d="M 11.601562 10.71875 C 11.699219 10.757812 11.699219 10.757812 11.800781 10.800781 C 11.761719 10.8125 11.722656 10.828125 11.679688 10.839844 C 11.667969 10.878906 11.652344 10.917969 11.640625 10.960938 C 11.585938 10.945312 11.535156 10.933594 11.480469 10.921875 C 11.46875 11 11.453125 11.078125 11.441406 11.160156 C 11.480469 11.171875 11.519531 11.1875 11.558594 11.199219 C 11.433594 11.183594 11.328125 11.164062 11.210938 11.113281 C 11.179688 11.101562 11.152344 11.09375 11.121094 11.078125 C 11.082031 11.101562 11.082031 11.101562 11.039062 11.121094 C 11.054688 11.066406 11.066406 11.015625 11.078125 10.960938 C 11.199219 10.960938 11.199219 10.960938 11.28125 11 C 11.4375 10.863281 11.4375 10.863281 11.601562 10.71875 Z M 11.601562 10.71875 "/>
<path style=" stroke:none;fill-rule:nonzero;fill:rgb(32.54902%,32.941176%,32.941176%);fill-opacity:1;" d="M 7.839844 6.960938 C 7.851562 6.988281 7.867188 7.011719 7.878906 7.039062 C 7.933594 7.039062 7.984375 7.039062 8.039062 7.039062 C 8.039062 7.011719 8.039062 6.988281 8.039062 6.960938 C 8.105469 6.960938 8.171875 6.960938 8.238281 6.960938 C 8.105469 7.0625 7.96875 7.15625 7.828125 7.246094 C 7.765625 7.289062 7.765625 7.289062 7.699219 7.335938 C 7.648438 7.367188 7.648438 7.367188 7.601562 7.398438 C 7.574219 7.386719 7.546875 7.375 7.519531 7.359375 C 7.53125 7.292969 7.546875 7.226562 7.558594 7.160156 C 7.597656 7.160156 7.640625 7.160156 7.679688 7.160156 C 7.699219 7.121094 7.699219 7.121094 7.714844 7.082031 C 7.761719 7 7.761719 7 7.839844 6.960938 Z M 7.839844 6.960938 "/>
<path style=" stroke:none;fill-rule:nonzero;fill:rgb(7.45098%,7.45098%,8.235294%);fill-opacity:1;" d="M 8 14.320312 C 8.011719 14.347656 8.027344 14.371094 8.039062 14.398438 C 8.078125 14.414062 8.121094 14.425781 8.160156 14.441406 C 8.121094 14.5 8.121094 14.5 8.078125 14.558594 C 8.054688 14.558594 8.027344 14.558594 8 14.558594 C 7.988281 14.585938 7.972656 14.613281 7.960938 14.640625 C 7.933594 14.625 7.90625 14.613281 7.878906 14.601562 C 7.878906 14.625 7.878906 14.652344 7.878906 14.679688 C 7.855469 14.679688 7.828125 14.679688 7.800781 14.679688 C 7.785156 14.746094 7.773438 14.8125 7.761719 14.878906 C 7.695312 14.828125 7.628906 14.773438 7.558594 14.71875 C 7.585938 14.71875 7.613281 14.71875 7.640625 14.71875 C 7.648438 14.695312 7.660156 14.671875 7.671875 14.648438 C 7.726562 14.546875 7.789062 14.476562 7.878906 14.398438 C 7.917969 14.398438 7.960938 14.398438 8 14.398438 C 8 14.375 8 14.347656 8 14.320312 Z M 8 14.320312 "/>
<path style=" stroke:none;fill-rule:nonzero;fill:rgb(7.843137%,7.843137%,8.235294%);fill-opacity:1;" d="M 9.320312 13 C 9.347656 13 9.371094 13 9.398438 13 C 9.398438 13.027344 9.398438 13.054688 9.398438 13.078125 C 9.425781 13.078125 9.453125 13.078125 9.480469 13.078125 C 9.46875 13.121094 9.453125 13.160156 9.441406 13.199219 C 9.402344 13.214844 9.359375 13.226562 9.320312 13.238281 C 9.320312 13.265625 9.320312 13.292969 9.320312 13.320312 C 9.28125 13.320312 9.242188 13.320312 9.199219 13.320312 C 9.199219 13.347656 9.199219 13.371094 9.199219 13.398438 C 9.171875 13.398438 9.148438 13.398438 9.121094 13.398438 C 9.121094 13.441406 9.121094 13.480469 9.121094 13.519531 C 9.082031 13.519531 9.039062 13.519531 9 13.519531 C 8.988281 13.453125 8.972656 13.386719 8.960938 13.320312 C 8.984375 13.300781 9.003906 13.28125 9.027344 13.261719 C 9.058594 13.234375 9.085938 13.207031 9.117188 13.183594 C 9.148438 13.15625 9.175781 13.132812 9.207031 13.105469 C 9.246094 13.070312 9.285156 13.035156 9.320312 13 Z M 9.320312 13 "/>
<path style=" stroke:none;fill-rule:nonzero;fill:rgb(36.862745%,36.862745%,37.647059%);fill-opacity:1;" d="M 8.761719 10.601562 C 8.789062 10.613281 8.816406 10.625 8.847656 10.636719 C 8.957031 10.683594 8.957031 10.683594 9.058594 10.691406 C 9.199219 10.730469 9.265625 10.8125 9.359375 10.921875 C 9.238281 10.921875 9.238281 10.921875 9.121094 10.878906 C 9.1875 10.960938 9.253906 11.039062 9.320312 11.121094 C 9.28125 11.132812 9.242188 11.144531 9.199219 11.160156 C 9.171875 11.148438 9.148438 11.132812 9.121094 11.121094 C 9.121094 11.082031 9.121094 11.039062 9.121094 11 C 9.082031 10.988281 9.039062 10.972656 9 10.960938 C 9 10.921875 9 10.878906 9 10.839844 C 8.960938 10.835938 8.960938 10.835938 8.925781 10.832031 C 8.839844 10.800781 8.839844 10.800781 8.789062 10.699219 C 8.78125 10.664062 8.769531 10.632812 8.761719 10.601562 Z M 8.761719 10.601562 "/>
<path style=" stroke:none;fill-rule:nonzero;fill:rgb(40.392157%,41.176471%,41.960784%);fill-opacity:1;" d="M 13.558594 9.078125 C 13.574219 9.078125 13.585938 9.078125 13.601562 9.078125 C 13.585938 9.347656 13.535156 9.585938 13.460938 9.839844 C 13.453125 9.871094 13.445312 9.898438 13.4375 9.929688 C 13.371094 10.148438 13.371094 10.148438 13.28125 10.238281 C 13.246094 10.125 13.230469 10.0625 13.277344 9.949219 C 13.292969 9.925781 13.304688 9.902344 13.320312 9.878906 C 13.347656 9.878906 13.371094 9.878906 13.398438 9.878906 C 13.390625 9.847656 13.382812 9.8125 13.371094 9.777344 C 13.355469 9.605469 13.40625 9.515625 13.480469 9.359375 C 13.511719 9.265625 13.535156 9.175781 13.558594 9.078125 Z M 13.558594 9.078125 "/>
<path style=" stroke:none;fill-rule:nonzero;fill:rgb(36.078431%,36.078431%,36.078431%);fill-opacity:1;" d="M 5.601562 7.039062 C 5.636719 7.160156 5.640625 7.195312 5.601562 7.320312 C 5.574219 7.320312 5.546875 7.320312 5.519531 7.320312 C 5.503906 7.363281 5.503906 7.363281 5.484375 7.40625 C 5.46875 7.445312 5.457031 7.480469 5.441406 7.519531 C 5.425781 7.554688 5.414062 7.585938 5.398438 7.621094 C 5.386719 7.65625 5.375 7.6875 5.359375 7.71875 C 5.34375 7.761719 5.34375 7.761719 5.324219 7.808594 C 5.269531 7.898438 5.214844 7.917969 5.121094 7.960938 C 5.210938 7.609375 5.398438 7.335938 5.601562 7.039062 Z M 5.601562 7.039062 "/>
<path style=" stroke:none;fill-rule:nonzero;fill:rgb(23.137255%,23.137255%,23.921569%);fill-opacity:1;" d="M 9.238281 15.601562 C 9.28125 15.601562 9.320312 15.601562 9.359375 15.601562 C 9.375 15.640625 9.386719 15.679688 9.398438 15.71875 C 9.375 15.71875 9.347656 15.71875 9.320312 15.71875 C 9.3125 15.757812 9.3125 15.757812 9.308594 15.796875 C 9.296875 15.824219 9.289062 15.851562 9.28125 15.878906 C 9.242188 15.894531 9.199219 15.90625 9.160156 15.921875 C 9.1875 15.945312 9.210938 15.972656 9.238281 16 C 9.070312 15.988281 8.898438 15.972656 8.71875 15.960938 C 8.71875 15.945312 8.71875 15.933594 8.71875 15.921875 C 8.800781 15.921875 8.878906 15.921875 8.960938 15.921875 C 8.960938 15.894531 8.960938 15.867188 8.960938 15.839844 C 9.140625 15.679688 9.140625 15.679688 9.238281 15.679688 C 9.238281 15.652344 9.238281 15.628906 9.238281 15.601562 Z M 9.238281 15.601562 "/>
<path style=" stroke:none;fill-rule:nonzero;fill:rgb(18.039216%,18.039216%,18.823529%);fill-opacity:1;" d="M 6.761719 12.800781 C 6.878906 12.914062 6.976562 13.007812 7.039062 13.160156 C 6.960938 13.171875 6.882812 13.1875 6.800781 13.199219 C 6.796875 13.226562 6.789062 13.25 6.785156 13.277344 C 6.777344 13.304688 6.769531 13.332031 6.761719 13.359375 C 6.71875 13.378906 6.71875 13.378906 6.679688 13.398438 C 6.679688 13.335938 6.679688 13.269531 6.679688 13.199219 C 6.652344 13.199219 6.628906 13.199219 6.601562 13.199219 C 6.601562 13.226562 6.601562 13.253906 6.601562 13.28125 C 6.574219 13.265625 6.546875 13.253906 6.519531 13.238281 C 6.582031 13.179688 6.640625 13.121094 6.707031 13.066406 C 6.78125 12.976562 6.769531 12.910156 6.761719 12.800781 Z M 6.761719 12.800781 "/>
<path style=" stroke:none;fill-rule:nonzero;fill:rgb(38.823529%,38.823529%,39.607843%);fill-opacity:1;" d="M 9.238281 6.601562 C 9.09375 6.679688 8.941406 6.730469 8.785156 6.78125 C 8.757812 6.789062 8.734375 6.796875 8.707031 6.804688 C 8.632812 6.832031 8.554688 6.855469 8.480469 6.878906 C 8.398438 6.90625 8.320312 6.933594 8.238281 6.960938 C 8.238281 6.921875 8.238281 6.878906 8.238281 6.839844 C 8.292969 6.839844 8.34375 6.839844 8.398438 6.839844 C 8.398438 6.8125 8.398438 6.789062 8.398438 6.761719 C 8.429688 6.753906 8.460938 6.75 8.488281 6.746094 C 8.621094 6.714844 8.71875 6.667969 8.828125 6.59375 C 8.972656 6.542969 9.09375 6.574219 9.238281 6.601562 Z M 9.238281 6.601562 "/>
<path style=" stroke:none;fill-rule:nonzero;fill:rgb(30.196078%,30.588235%,31.372549%);fill-opacity:1;" d="M 15.199219 11.679688 C 15.226562 11.679688 15.253906 11.679688 15.28125 11.679688 C 15.296875 11.902344 15.261719 12.097656 15.203125 12.3125 C 15.199219 12.339844 15.191406 12.363281 15.183594 12.390625 C 15.148438 12.519531 15.113281 12.609375 15.039062 12.71875 C 15.003906 12.542969 14.996094 12.445312 15.078125 12.28125 C 15.105469 12.28125 15.132812 12.28125 15.160156 12.28125 C 15.148438 12.214844 15.132812 12.148438 15.121094 12.078125 C 15.144531 12.078125 15.171875 12.078125 15.199219 12.078125 C 15.191406 12.035156 15.183594 11.992188 15.175781 11.949219 C 15.160156 11.800781 15.160156 11.800781 15.199219 11.679688 Z M 15.199219 11.679688 "/>
<path style=" stroke:none;fill-rule:nonzero;fill:rgb(29.803922%,29.803922%,30.588235%);fill-opacity:1;" d="M 11.640625 5 C 11.859375 5.152344 12.035156 5.308594 12.199219 5.519531 C 12.160156 5.539062 12.160156 5.539062 12.121094 5.558594 C 12.09375 5.535156 12.066406 5.507812 12.039062 5.480469 C 12.027344 5.507812 12.011719 5.53125 12 5.558594 C 11.960938 5.546875 11.921875 5.535156 11.878906 5.519531 C 11.851562 5.441406 11.828125 5.359375 11.800781 5.28125 C 11.761719 5.253906 11.722656 5.226562 11.679688 5.199219 C 11.652344 5.09375 11.652344 5.09375 11.640625 5 Z M 11.640625 5 "/>
<path style=" stroke:none;fill-rule:nonzero;fill:rgb(27.058824%,27.058824%,27.843137%);fill-opacity:1;" d="M 4.800781 12.160156 C 4.878906 12.28125 4.878906 12.28125 4.878906 12.359375 C 4.933594 12.359375 4.984375 12.359375 5.039062 12.359375 C 5.082031 12.472656 5.082031 12.515625 5.042969 12.628906 C 5.027344 12.660156 5.015625 12.6875 5 12.71875 C 5.027344 12.71875 5.054688 12.71875 5.078125 12.71875 C 5.078125 12.8125 5.078125 12.90625 5.078125 13 C 4.972656 12.890625 4.941406 12.765625 4.894531 12.625 C 4.882812 12.585938 4.882812 12.585938 4.867188 12.542969 C 4.820312 12.40625 4.800781 12.304688 4.800781 12.160156 Z M 4.800781 12.160156 "/>
<path style=" stroke:none;fill-rule:nonzero;fill:rgb(40.392157%,40.392157%,40.392157%);fill-opacity:1;" d="M 13.679688 11.71875 C 13.75 11.910156 13.703125 12.09375 13.640625 12.28125 C 13.582031 12.386719 13.582031 12.386719 13.519531 12.480469 C 13.492188 12.480469 13.46875 12.480469 13.441406 12.480469 C 13.425781 12.53125 13.414062 12.585938 13.398438 12.640625 C 13.375 12.640625 13.347656 12.640625 13.320312 12.640625 C 13.386719 12.433594 13.46875 12.238281 13.554688 12.039062 C 13.601562 11.933594 13.644531 11.828125 13.679688 11.71875 Z M 13.679688 11.71875 "/>
<path style=" stroke:none;fill-rule:nonzero;fill:rgb(22.745098%,22.745098%,23.529412%);fill-opacity:1;" d="M 11.398438 9.761719 C 11.332031 9.816406 11.261719 9.875 11.191406 9.929688 C 11.132812 9.976562 11.132812 9.976562 11.074219 10.027344 C 10.972656 10.109375 10.867188 10.195312 10.761719 10.28125 C 10.773438 10.1875 10.785156 10.09375 10.800781 10 C 10.832031 9.988281 10.863281 9.976562 10.894531 9.964844 C 11.003906 9.925781 11.003906 9.925781 11.078125 9.839844 C 11.105469 9.851562 11.132812 9.867188 11.160156 9.878906 C 11.160156 9.839844 11.160156 9.800781 11.160156 9.761719 C 11.257812 9.710938 11.296875 9.730469 11.398438 9.761719 Z M 11.398438 9.761719 "/>
<path style=" stroke:none;fill-rule:nonzero;fill:rgb(42.745098%,42.745098%,42.745098%);fill-opacity:1;" d="M 9.519531 9.921875 C 9.695312 10.125 9.730469 10.328125 9.726562 10.59375 C 9.722656 10.640625 9.722656 10.6875 9.722656 10.734375 C 9.722656 10.785156 9.722656 10.785156 9.71875 10.839844 C 9.707031 10.839844 9.695312 10.839844 9.679688 10.839844 C 9.679688 10.722656 9.679688 10.601562 9.679688 10.480469 C 9.652344 10.480469 9.628906 10.480469 9.601562 10.480469 C 9.601562 10.453125 9.601562 10.425781 9.601562 10.398438 C 9.574219 10.398438 9.546875 10.398438 9.519531 10.398438 C 9.527344 10.359375 9.535156 10.324219 9.542969 10.28125 C 9.546875 10.242188 9.554688 10.203125 9.558594 10.160156 C 9.546875 10.148438 9.535156 10.132812 9.519531 10.121094 C 9.519531 10.054688 9.519531 9.988281 9.519531 9.921875 Z M 9.519531 9.921875 "/>
<path style=" stroke:none;fill-rule:nonzero;fill:rgb(40%,40.392157%,41.176471%);fill-opacity:1;" d="M 6.558594 8.441406 C 6.597656 8.453125 6.640625 8.464844 6.679688 8.480469 C 6.523438 8.835938 6.523438 8.835938 6.359375 9.199219 C 6.28125 9.078125 6.28125 9.078125 6.289062 9.007812 C 6.328125 8.894531 6.382812 8.789062 6.441406 8.679688 C 6.464844 8.679688 6.492188 8.679688 6.519531 8.679688 C 6.507812 8.640625 6.492188 8.601562 6.480469 8.558594 C 6.507812 8.519531 6.53125 8.480469 6.558594 8.441406 Z M 6.558594 8.441406 "/>
<path style=" stroke:none;fill-rule:nonzero;fill:rgb(7.058824%,7.058824%,7.843137%);fill-opacity:1;" d="M 9.800781 12.480469 C 9.828125 12.480469 9.851562 12.480469 9.878906 12.480469 C 9.917969 12.601562 9.921875 12.632812 9.878906 12.761719 C 9.839844 12.761719 9.800781 12.761719 9.761719 12.761719 C 9.71875 12.839844 9.679688 12.917969 9.640625 13 C 9.554688 12.863281 9.554688 12.757812 9.558594 12.601562 C 9.59375 12.59375 9.625 12.589844 9.65625 12.585938 C 9.691406 12.578125 9.726562 12.570312 9.761719 12.558594 C 9.773438 12.535156 9.785156 12.507812 9.800781 12.480469 Z M 9.800781 12.480469 "/>
<path style=" stroke:none;fill-rule:nonzero;fill:rgb(39.215686%,39.215686%,39.215686%);fill-opacity:1;" d="M 13.878906 10.761719 C 13.894531 10.761719 13.90625 10.761719 13.921875 10.761719 C 13.933594 10.90625 13.945312 11.050781 13.960938 11.199219 C 13.921875 11.214844 13.878906 11.226562 13.839844 11.238281 C 13.847656 11.277344 13.855469 11.3125 13.863281 11.351562 C 13.886719 11.535156 13.886719 11.535156 13.839844 11.640625 C 13.800781 11.652344 13.761719 11.667969 13.71875 11.679688 C 13.765625 11.371094 13.816406 11.066406 13.878906 10.761719 Z M 13.878906 10.761719 "/>
<path style=" stroke:none;fill-rule:nonzero;fill:rgb(35.294118%,35.686275%,36.470588%);fill-opacity:1;" d="M 14.441406 13.839844 C 14.441406 13.996094 14.386719 14.039062 14.289062 14.160156 C 14.261719 14.195312 14.234375 14.230469 14.207031 14.265625 C 14.128906 14.351562 14.054688 14.414062 13.960938 14.480469 C 13.980469 14.257812 13.980469 14.257812 14.074219 14.167969 C 14.160156 14.121094 14.160156 14.121094 14.28125 14.078125 C 14.292969 14.015625 14.304688 13.949219 14.320312 13.878906 C 14.359375 13.867188 14.398438 13.855469 14.441406 13.839844 Z M 14.441406 13.839844 "/>
<path style=" stroke:none;fill-rule:nonzero;fill:rgb(38.431373%,38.431373%,38.823529%);fill-opacity:1;" d="M 11.679688 15.679688 C 11.71875 15.679688 11.757812 15.679688 11.800781 15.679688 C 11.800781 15.707031 11.800781 15.734375 11.800781 15.761719 C 11.828125 15.773438 11.851562 15.785156 11.878906 15.800781 C 11.785156 15.828125 11.6875 15.855469 11.59375 15.878906 C 11.566406 15.886719 11.539062 15.894531 11.511719 15.902344 C 11.363281 15.941406 11.234375 15.96875 11.078125 15.960938 C 11.1875 15.902344 11.234375 15.878906 11.359375 15.878906 C 11.375 15.839844 11.386719 15.800781 11.398438 15.761719 C 11.628906 15.753906 11.628906 15.753906 11.71875 15.800781 C 11.707031 15.761719 11.695312 15.722656 11.679688 15.679688 Z M 11.679688 15.679688 "/>
<path style=" stroke:none;fill-rule:nonzero;fill:rgb(34.509804%,34.901961%,34.901961%);fill-opacity:1;" d="M 7.320312 7.480469 C 7.359375 7.507812 7.398438 7.53125 7.441406 7.558594 C 7.28125 7.71875 7.121094 7.878906 6.960938 8.039062 C 6.945312 8 6.933594 7.960938 6.921875 7.921875 C 7.011719 7.792969 7.011719 7.792969 7.121094 7.679688 C 7.160156 7.679688 7.199219 7.679688 7.238281 7.679688 C 7.238281 7.640625 7.238281 7.601562 7.238281 7.558594 C 7.265625 7.558594 7.292969 7.558594 7.320312 7.558594 C 7.320312 7.535156 7.320312 7.507812 7.320312 7.480469 Z M 7.320312 7.480469 "/>
<path style=" stroke:none;fill-rule:nonzero;fill:rgb(43.921569%,43.921569%,43.921569%);fill-opacity:1;" d="M 10.921875 8.320312 C 10.945312 8.332031 10.972656 8.347656 11 8.359375 C 10.980469 8.375 10.964844 8.394531 10.945312 8.410156 C 10.875 8.476562 10.875 8.476562 10.839844 8.5625 C 10.800781 8.640625 10.800781 8.640625 10.679688 8.71875 C 10.660156 8.761719 10.640625 8.800781 10.621094 8.84375 C 10.558594 8.960938 10.558594 8.960938 10.441406 9 C 10.492188 8.804688 10.566406 8.691406 10.703125 8.546875 C 10.734375 8.511719 10.765625 8.476562 10.800781 8.441406 C 10.878906 8.359375 10.878906 8.359375 10.921875 8.320312 Z M 10.921875 8.320312 "/>
<path style=" stroke:none;fill-rule:nonzero;fill:rgb(7.058824%,7.058824%,7.058824%);fill-opacity:1;" d="M 11.441406 8.320312 C 11.480469 8.320312 11.519531 8.320312 11.558594 8.320312 C 11.558594 8.347656 11.558594 8.371094 11.558594 8.398438 C 11.585938 8.398438 11.613281 8.398438 11.640625 8.398438 C 11.640625 8.375 11.640625 8.347656 11.640625 8.320312 C 11.679688 8.332031 11.71875 8.347656 11.761719 8.359375 C 11.734375 8.386719 11.707031 8.414062 11.679688 8.441406 C 11.640625 8.441406 11.601562 8.441406 11.558594 8.441406 C 11.546875 8.480469 11.535156 8.519531 11.519531 8.558594 C 11.507812 8.585938 11.492188 8.613281 11.480469 8.640625 C 11.425781 8.613281 11.375 8.585938 11.320312 8.558594 C 11.34375 8.445312 11.355469 8.40625 11.441406 8.320312 Z M 11.441406 8.320312 "/>
<path style=" stroke:none;fill-rule:nonzero;fill:rgb(30.196078%,30.196078%,30.588235%);fill-opacity:1;" d="M 6.238281 14.679688 C 6.429688 14.714844 6.429688 14.714844 6.519531 14.761719 C 6.519531 14.785156 6.519531 14.8125 6.519531 14.839844 C 6.574219 14.828125 6.625 14.8125 6.679688 14.800781 C 6.691406 14.890625 6.707031 14.984375 6.71875 15.078125 C 6.664062 15.042969 6.605469 15.007812 6.546875 14.96875 C 6.515625 14.949219 6.484375 14.929688 6.449219 14.90625 C 6.359375 14.839844 6.304688 14.773438 6.238281 14.679688 Z M 6.238281 14.679688 "/>
<path style=" stroke:none;fill-rule:nonzero;fill:rgb(37.254902%,37.254902%,37.647059%);fill-opacity:1;" d="M 7.800781 9.039062 C 8.035156 9.058594 8.253906 9.085938 8.480469 9.160156 C 8.46875 9.199219 8.453125 9.238281 8.441406 9.28125 C 8.414062 9.28125 8.386719 9.28125 8.359375 9.28125 C 8.347656 9.253906 8.332031 9.226562 8.320312 9.199219 C 8.1875 9.179688 8.1875 9.179688 8.039062 9.175781 C 7.960938 9.171875 7.960938 9.171875 7.882812 9.164062 C 7.820312 9.164062 7.820312 9.164062 7.761719 9.160156 C 7.773438 9.121094 7.785156 9.082031 7.800781 9.039062 Z M 7.800781 9.039062 "/>
<path style=" stroke:none;fill-rule:nonzero;fill:rgb(32.941176%,32.941176%,32.941176%);fill-opacity:1;" d="M 13.28125 12.640625 C 13.320312 12.691406 13.359375 12.746094 13.398438 12.800781 C 13.285156 12.964844 13.183594 13.042969 13 13.121094 C 13.0625 12.933594 13.164062 12.796875 13.28125 12.640625 Z M 13.28125 12.640625 "/>
<path style=" stroke:none;fill-rule:nonzero;fill:rgb(33.333333%,33.72549%,34.509804%);fill-opacity:1;" d="M 12.839844 15.199219 C 12.90625 15.214844 12.972656 15.226562 13.039062 15.238281 C 12.902344 15.359375 12.769531 15.449219 12.601562 15.519531 C 12.574219 15.507812 12.546875 15.492188 12.519531 15.480469 C 12.53125 15.441406 12.546875 15.402344 12.558594 15.359375 C 12.640625 15.347656 12.71875 15.332031 12.800781 15.320312 C 12.8125 15.28125 12.828125 15.242188 12.839844 15.199219 Z M 12.839844 15.199219 "/>
<path style=" stroke:none;fill-rule:nonzero;fill:rgb(26.27451%,26.27451%,26.666667%);fill-opacity:1;" d="M 7.28125 15.039062 C 7.320312 15.058594 7.320312 15.058594 7.359375 15.078125 C 7.359375 15.105469 7.359375 15.132812 7.359375 15.160156 C 7.332031 15.160156 7.308594 15.160156 7.28125 15.160156 C 7.28125 15.121094 7.28125 15.082031 7.28125 15.039062 Z M 7.199219 15.160156 C 7.226562 15.160156 7.253906 15.160156 7.28125 15.160156 C 7.285156 15.1875 7.289062 15.210938 7.296875 15.238281 C 7.308594 15.277344 7.308594 15.277344 7.320312 15.320312 C 7.347656 15.332031 7.371094 15.347656 7.398438 15.359375 C 7.398438 15.398438 7.398438 15.4375 7.398438 15.480469 C 7.261719 15.429688 7.152344 15.371094 7.039062 15.28125 C 7.078125 15.28125 7.121094 15.28125 7.160156 15.28125 C 7.171875 15.242188 7.1875 15.199219 7.199219 15.160156 Z M 7.199219 15.160156 "/>
<path style=" stroke:none;fill-rule:nonzero;fill:rgb(39.215686%,39.215686%,40%);fill-opacity:1;" d="M 9.640625 11.601562 C 9.785156 11.730469 9.871094 11.863281 9.960938 12.039062 C 9.945312 12.066406 9.933594 12.09375 9.921875 12.121094 C 9.855469 12.066406 9.789062 12.015625 9.71875 11.960938 C 9.734375 11.90625 9.746094 11.855469 9.761719 11.800781 C 9.71875 11.800781 9.679688 11.800781 9.640625 11.800781 C 9.625 11.761719 9.613281 11.722656 9.601562 11.679688 C 9.613281 11.652344 9.625 11.628906 9.640625 11.601562 Z M 9.640625 11.601562 "/>
<path style=" stroke:none;fill-rule:nonzero;fill:rgb(25.098039%,25.098039%,25.882353%);fill-opacity:1;" d="M 6.199219 9.320312 C 6.226562 9.320312 6.253906 9.320312 6.28125 9.320312 C 6.265625 9.4375 6.253906 9.558594 6.238281 9.679688 C 6.214844 9.679688 6.1875 9.679688 6.160156 9.679688 C 6.148438 9.746094 6.132812 9.8125 6.121094 9.878906 C 6.105469 9.878906 6.09375 9.878906 6.078125 9.878906 C 6.085938 9.816406 6.089844 9.753906 6.09375 9.691406 C 6.097656 9.65625 6.101562 9.621094 6.101562 9.582031 C 6.121094 9.480469 6.148438 9.410156 6.199219 9.320312 Z M 6.199219 9.320312 "/>
<path style=" stroke:none;fill-rule:nonzero;fill:rgb(54.901961%,54.901961%,54.901961%);fill-opacity:1;" d="M 4.960938 8.238281 C 5.039062 8.53125 4.925781 8.816406 4.800781 9.078125 C 4.757812 8.957031 4.761719 8.878906 4.800781 8.753906 C 4.808594 8.726562 4.816406 8.695312 4.828125 8.664062 C 4.835938 8.632812 4.847656 8.601562 4.859375 8.570312 C 4.867188 8.539062 4.875 8.507812 4.886719 8.472656 C 4.910156 8.394531 4.933594 8.316406 4.960938 8.238281 Z M 4.960938 8.238281 "/>
<path style=" stroke:none;fill-rule:nonzero;fill:rgb(35.686275%,36.470588%,36.470588%);fill-opacity:1;" d="M 14.71875 13.359375 C 14.734375 13.386719 14.746094 13.414062 14.761719 13.441406 C 14.710938 13.535156 14.710938 13.535156 14.640625 13.644531 C 14.621094 13.679688 14.597656 13.71875 14.574219 13.753906 C 14.554688 13.785156 14.539062 13.8125 14.519531 13.839844 C 14.492188 13.789062 14.46875 13.734375 14.441406 13.679688 C 14.464844 13.652344 14.492188 13.628906 14.519531 13.601562 C 14.539062 13.558594 14.539062 13.558594 14.558594 13.519531 C 14.601562 13.441406 14.601562 13.441406 14.71875 13.359375 Z M 14.71875 13.359375 "/>
<path style=" stroke:none;fill-rule:nonzero;fill:rgb(52.941176%,52.941176%,53.333333%);fill-opacity:1;" d="M 9.480469 12.359375 C 9.519531 12.375 9.558594 12.386719 9.601562 12.398438 C 9.601562 12.472656 9.601562 12.546875 9.601562 12.617188 C 9.601562 12.65625 9.601562 12.699219 9.605469 12.738281 C 9.601562 12.839844 9.601562 12.839844 9.558594 12.878906 C 9.453125 12.886719 9.347656 12.882812 9.238281 12.878906 C 9.238281 12.867188 9.238281 12.855469 9.238281 12.839844 C 9.332031 12.8125 9.425781 12.789062 9.519531 12.761719 C 9.507812 12.628906 9.492188 12.496094 9.480469 12.359375 Z M 9.480469 12.359375 "/>
<path style=" stroke:none;fill-rule:nonzero;fill:rgb(57.254902%,57.254902%,58.039216%);fill-opacity:1;" d="M 6.121094 10.761719 C 6.132812 10.761719 6.144531 10.761719 6.160156 10.761719 C 6.171875 10.863281 6.1875 10.964844 6.199219 11.066406 C 6.203125 11.097656 6.207031 11.125 6.210938 11.15625 C 6.230469 11.304688 6.246094 11.449219 6.238281 11.601562 C 6.136719 11.496094 6.117188 11.417969 6.078125 11.28125 C 6.082031 11.144531 6.082031 11.144531 6.09375 11.003906 C 6.097656 10.957031 6.105469 10.914062 6.109375 10.867188 C 6.113281 10.832031 6.117188 10.796875 6.121094 10.761719 Z M 6.121094 10.761719 "/>
<path style=" stroke:none;fill-rule:nonzero;fill:rgb(41.176471%,41.176471%,41.960784%);fill-opacity:1;" d="M 11.121094 10.921875 C 11.15625 10.9375 11.15625 10.9375 11.191406 10.957031 C 11.273438 10.996094 11.351562 11.019531 11.441406 11.039062 C 11.441406 11.078125 11.441406 11.121094 11.441406 11.160156 C 11.480469 11.171875 11.519531 11.1875 11.558594 11.199219 C 11.433594 11.183594 11.328125 11.164062 11.210938 11.113281 C 11.164062 11.097656 11.164062 11.097656 11.121094 11.078125 C 11.082031 11.101562 11.082031 11.101562 11.039062 11.121094 C 11.074219 10.964844 11.074219 10.964844 11.121094 10.921875 Z M 11.121094 10.921875 "/>
<path style=" stroke:none;fill-rule:nonzero;fill:rgb(33.333333%,33.72549%,34.117647%);fill-opacity:1;" d="M 13.519531 14.761719 C 13.574219 14.773438 13.625 14.785156 13.679688 14.800781 C 13.628906 14.847656 13.578125 14.894531 13.527344 14.941406 C 13.484375 14.980469 13.484375 14.980469 13.441406 15.023438 C 13.414062 15.042969 13.386719 15.058594 13.359375 15.078125 C 13.320312 15.066406 13.28125 15.054688 13.238281 15.039062 C 13.265625 15.011719 13.292969 14.988281 13.320312 14.960938 C 13.320312 14.921875 13.320312 14.878906 13.320312 14.839844 C 13.386719 14.828125 13.453125 14.8125 13.519531 14.800781 C 13.519531 14.785156 13.519531 14.773438 13.519531 14.761719 Z M 13.519531 14.761719 "/>
<path style=" stroke:none;fill-rule:nonzero;fill:rgb(39.215686%,39.215686%,40%);fill-opacity:1;" d="M 6.441406 12.160156 C 6.503906 12.253906 6.554688 12.34375 6.609375 12.441406 C 6.621094 12.46875 6.636719 12.496094 6.652344 12.527344 C 6.660156 12.550781 6.671875 12.574219 6.679688 12.601562 C 6.667969 12.625 6.652344 12.652344 6.640625 12.679688 C 6.5 12.558594 6.441406 12.460938 6.398438 12.28125 C 6.414062 12.242188 6.425781 12.199219 6.441406 12.160156 Z M 6.441406 12.160156 "/>
<path style=" stroke:none;fill-rule:nonzero;fill:rgb(45.882353%,45.882353%,47.058824%);fill-opacity:1;" d="M 6.238281 11.601562 C 6.320312 11.71875 6.347656 11.808594 6.386719 11.949219 C 6.394531 11.988281 6.40625 12.027344 6.417969 12.066406 C 6.425781 12.097656 6.433594 12.128906 6.441406 12.160156 C 6.402344 12.160156 6.359375 12.160156 6.320312 12.160156 C 6.316406 12.128906 6.308594 12.097656 6.304688 12.066406 C 6.285156 11.953125 6.285156 11.953125 6.199219 11.839844 C 6.214844 11.710938 6.214844 11.710938 6.238281 11.601562 Z M 6.238281 11.601562 "/>
<path style=" stroke:none;fill-rule:nonzero;fill:rgb(44.313725%,44.705882%,45.098039%);fill-opacity:1;" d="M 13.359375 9.679688 C 13.398438 9.679688 13.4375 9.679688 13.480469 9.679688 C 13.441406 9.875 13.402344 10.058594 13.320312 10.238281 C 13.292969 10.199219 13.265625 10.160156 13.238281 10.121094 C 13.273438 9.992188 13.273438 9.992188 13.320312 9.878906 C 13.347656 9.878906 13.371094 9.878906 13.398438 9.878906 C 13.386719 9.8125 13.375 9.746094 13.359375 9.679688 Z M 13.359375 9.679688 "/>
<path style=" stroke:none;fill-rule:nonzero;fill:rgb(51.764706%,52.156863%,52.54902%);fill-opacity:1;" d="M 11.761719 9.359375 C 11.785156 9.375 11.8125 9.386719 11.839844 9.398438 C 11.8125 9.421875 11.789062 9.445312 11.761719 9.46875 C 11.671875 9.570312 11.65625 9.628906 11.640625 9.761719 C 11.585938 9.746094 11.535156 9.734375 11.480469 9.71875 C 11.46875 9.667969 11.453125 9.613281 11.441406 9.558594 C 11.46875 9.550781 11.5 9.539062 11.53125 9.527344 C 11.636719 9.480469 11.6875 9.445312 11.761719 9.359375 Z M 11.761719 9.359375 "/>
<path style=" stroke:none;fill-rule:nonzero;fill:rgb(29.019608%,29.019608%,29.803922%);fill-opacity:1;" d="M 7.359375 13.480469 C 7.464844 13.558594 7.570312 13.636719 7.679688 13.71875 C 7.578125 13.769531 7.546875 13.75 7.441406 13.71875 C 7.386719 13.71875 7.335938 13.71875 7.28125 13.71875 C 7.28125 13.679688 7.28125 13.640625 7.28125 13.601562 C 7.304688 13.601562 7.332031 13.601562 7.359375 13.601562 C 7.359375 13.558594 7.359375 13.519531 7.359375 13.480469 Z M 7.359375 13.480469 "/>
<path style=" stroke:none;fill-rule:nonzero;fill:rgb(41.960784%,41.960784%,42.352941%);fill-opacity:1;" d="M 9.640625 10.878906 C 9.6875 11.023438 9.660156 11.066406 9.601562 11.199219 C 9.519531 11.132812 9.441406 11.066406 9.359375 11 C 9.464844 10.929688 9.523438 10.90625 9.640625 10.878906 Z M 9.640625 10.878906 "/>
<path style=" stroke:none;fill-rule:nonzero;fill:rgb(8.235294%,8.235294%,9.019608%);fill-opacity:1;" d="M 8.519531 11.238281 C 8.546875 11.238281 8.574219 11.238281 8.601562 11.238281 C 8.628906 11.3125 8.628906 11.3125 8.640625 11.398438 C 8.578125 11.488281 8.535156 11.515625 8.433594 11.546875 C 8.410156 11.550781 8.382812 11.554688 8.359375 11.558594 C 8.414062 11.453125 8.464844 11.347656 8.519531 11.238281 Z M 8.519531 11.238281 "/>
<path style=" stroke:none;fill-rule:nonzero;fill:rgb(8.235294%,8.235294%,8.235294%);fill-opacity:1;" d="M 14 10.800781 C 14.039062 10.800781 14.078125 10.800781 14.121094 10.800781 C 14.121094 10.828125 14.121094 10.851562 14.121094 10.878906 C 14.144531 10.894531 14.171875 10.90625 14.199219 10.921875 C 14.160156 10.941406 14.160156 10.941406 14.121094 10.960938 C 14.082031 11.019531 14.082031 11.019531 14.039062 11.078125 C 14 11.054688 13.960938 11.027344 13.921875 11 C 13.953125 10.84375 13.953125 10.84375 14 10.800781 Z M 14 10.800781 "/>
<path style=" stroke:none;fill-rule:nonzero;fill:rgb(44.313725%,44.313725%,45.098039%);fill-opacity:1;" d="M 9.121094 9.519531 C 9.277344 9.605469 9.398438 9.703125 9.519531 9.839844 C 9.519531 9.867188 9.519531 9.894531 9.519531 9.921875 C 9.46875 9.90625 9.414062 9.894531 9.359375 9.878906 C 9.359375 9.839844 9.359375 9.800781 9.359375 9.761719 C 9.320312 9.761719 9.28125 9.761719 9.238281 9.761719 C 9.226562 9.71875 9.214844 9.679688 9.199219 9.640625 C 9.171875 9.625 9.148438 9.613281 9.121094 9.601562 C 9.121094 9.574219 9.121094 9.546875 9.121094 9.519531 Z M 9.121094 9.519531 "/>
<path style=" stroke:none;fill-rule:nonzero;fill:rgb(60.392157%,60.392157%,60.392157%);fill-opacity:1;" d="M 4.71875 9.078125 C 4.734375 9.078125 4.746094 9.078125 4.761719 9.078125 C 4.773438 9.199219 4.785156 9.316406 4.800781 9.441406 C 4.773438 9.441406 4.746094 9.441406 4.71875 9.441406 C 4.707031 9.570312 4.695312 9.703125 4.679688 9.839844 C 4.667969 9.839844 4.652344 9.839844 4.640625 9.839844 C 4.628906 9.578125 4.667969 9.335938 4.71875 9.078125 Z M 4.71875 9.078125 "/>
<path style=" stroke:none;fill-rule:nonzero;fill:rgb(45.490196%,45.882353%,46.27451%);fill-opacity:1;" d="M 15.160156 12.199219 C 15.207031 12.335938 15.191406 12.414062 15.140625 12.550781 C 15.125 12.597656 15.125 12.597656 15.109375 12.648438 C 15.097656 12.671875 15.089844 12.695312 15.078125 12.71875 C 15 12.589844 14.996094 12.570312 15.035156 12.410156 C 15.050781 12.367188 15.066406 12.324219 15.078125 12.28125 C 15.105469 12.28125 15.132812 12.28125 15.160156 12.28125 C 15.160156 12.253906 15.160156 12.226562 15.160156 12.199219 Z M 15.160156 12.199219 "/>
<path style=" stroke:none;fill-rule:nonzero;fill:rgb(49.019608%,49.019608%,49.803922%);fill-opacity:1;" d="M 8.878906 10.679688 C 8.988281 10.667969 8.988281 10.667969 9.121094 10.679688 C 9.222656 10.765625 9.300781 10.839844 9.359375 10.960938 C 8.941406 10.800781 8.941406 10.800781 8.878906 10.679688 Z M 8.878906 10.679688 "/>
<path style=" stroke:none;fill-rule:nonzero;fill:rgb(29.411765%,29.411765%,29.411765%);fill-opacity:1;" d="M 14.140625 10.554688 C 14.199219 10.558594 14.199219 10.558594 14.261719 10.558594 C 14.304688 10.558594 14.34375 10.558594 14.386719 10.558594 C 14.433594 10.558594 14.433594 10.558594 14.480469 10.558594 C 14.480469 10.574219 14.480469 10.585938 14.480469 10.601562 C 14.433594 10.605469 14.390625 10.609375 14.34375 10.613281 C 14.199219 10.625 14.199219 10.625 14.121094 10.71875 C 14.015625 10.746094 14.015625 10.746094 13.921875 10.761719 C 14.015625 10.5625 14.015625 10.5625 14.140625 10.554688 Z M 14.140625 10.554688 "/>
<path style=" stroke:none;fill-rule:nonzero;fill:rgb(34.901961%,34.901961%,34.901961%);fill-opacity:1;" d="M 5.921875 6.679688 C 5.90625 6.773438 5.894531 6.863281 5.878906 6.960938 C 5.800781 6.988281 5.722656 7.011719 5.640625 7.039062 C 5.679688 6.917969 5.761719 6.679688 5.921875 6.679688 Z M 5.921875 6.679688 "/>
<path style=" stroke:none;fill-rule:nonzero;fill:rgb(32.941176%,33.333333%,34.117647%);fill-opacity:1;" d="M 13.839844 14.480469 C 13.878906 14.492188 13.917969 14.507812 13.960938 14.519531 C 13.945312 14.546875 13.933594 14.574219 13.921875 14.601562 C 13.894531 14.601562 13.867188 14.601562 13.839844 14.601562 C 13.828125 14.640625 13.8125 14.679688 13.800781 14.71875 C 13.761719 14.734375 13.722656 14.746094 13.679688 14.761719 C 13.667969 14.71875 13.652344 14.679688 13.640625 14.640625 C 13.734375 14.558594 13.734375 14.558594 13.839844 14.480469 Z M 13.839844 14.480469 "/>
<path style=" stroke:none;fill-rule:nonzero;fill:rgb(36.078431%,36.078431%,36.862745%);fill-opacity:1;" d="M 5.601562 13.960938 C 5.753906 14.011719 5.84375 14.054688 5.921875 14.199219 C 5.902344 14.285156 5.902344 14.285156 5.878906 14.359375 C 5.832031 14.300781 5.785156 14.242188 5.738281 14.183594 C 5.714844 14.148438 5.6875 14.117188 5.660156 14.082031 C 5.601562 14 5.601562 14 5.601562 13.960938 Z M 5.601562 13.960938 "/>
<path style=" stroke:none;fill-rule:nonzero;fill:rgb(39.607843%,39.607843%,40%);fill-opacity:1;" d="M 7.039062 13.160156 C 7.097656 13.199219 7.097656 13.199219 7.160156 13.238281 C 7.160156 13.265625 7.160156 13.292969 7.160156 13.320312 C 7.1875 13.320312 7.210938 13.320312 7.238281 13.320312 C 7.238281 13.347656 7.238281 13.371094 7.238281 13.398438 C 7.28125 13.414062 7.320312 13.425781 7.359375 13.441406 C 7.289062 13.46875 7.289062 13.46875 7.199219 13.480469 C 7.109375 13.414062 7.109375 13.414062 7.039062 13.320312 C 7.039062 13.265625 7.039062 13.214844 7.039062 13.160156 Z M 7.039062 13.160156 "/>
<path style=" stroke:none;fill-rule:nonzero;fill:rgb(16.470588%,16.862745%,17.647059%);fill-opacity:1;" d="M 13.558594 8.679688 C 13.574219 8.679688 13.585938 8.679688 13.601562 8.679688 C 13.601562 8.8125 13.601562 8.945312 13.601562 9.078125 C 13.535156 9.09375 13.46875 9.105469 13.398438 9.121094 C 13.398438 9.066406 13.398438 9.015625 13.398438 8.960938 C 13.441406 8.960938 13.480469 8.960938 13.519531 8.960938 C 13.53125 8.867188 13.546875 8.773438 13.558594 8.679688 Z M 13.558594 8.679688 "/>
<path style=" stroke:none;fill-rule:nonzero;fill:rgb(40.392157%,40.392157%,40.392157%);fill-opacity:1;" d="M 10.441406 10.238281 C 10.453125 10.265625 10.464844 10.292969 10.480469 10.320312 C 10.617188 10.300781 10.617188 10.300781 10.761719 10.28125 C 10.707031 10.347656 10.65625 10.410156 10.601562 10.480469 C 10.558594 10.46875 10.519531 10.453125 10.480469 10.441406 C 10.46875 10.375 10.453125 10.308594 10.441406 10.238281 Z M 10.441406 10.238281 "/>
<path style=" stroke:none;fill-rule:nonzero;fill:rgb(46.27451%,46.27451%,47.058824%);fill-opacity:1;" d="M 11.441406 9.761719 C 11.441406 9.914062 11.398438 9.988281 11.320312 10.121094 C 11.210938 10.195312 11.210938 10.195312 11.121094 10.238281 C 11.175781 10.117188 11.242188 10.015625 11.324219 9.910156 C 11.355469 9.867188 11.355469 9.867188 11.390625 9.824219 C 11.40625 9.804688 11.421875 9.78125 11.441406 9.761719 Z M 11.441406 9.761719 "/>
<path style=" stroke:none;fill-rule:nonzero;fill:rgb(47.058824%,47.45098%,47.45098%);fill-opacity:1;" d="M 8.679688 6.761719 C 8.378906 6.960938 8.378906 6.960938 8.238281 6.960938 C 8.238281 6.921875 8.238281 6.878906 8.238281 6.839844 C 8.292969 6.839844 8.34375 6.839844 8.398438 6.839844 C 8.398438 6.8125 8.398438 6.789062 8.398438 6.761719 C 8.507812 6.707031 8.566406 6.734375 8.679688 6.761719 Z M 8.679688 6.761719 "/>
<path style=" stroke:none;fill-rule:nonzero;fill:rgb(39.215686%,39.215686%,39.215686%);fill-opacity:1;" d="M 6.199219 6.320312 C 6.214844 6.359375 6.226562 6.398438 6.238281 6.441406 C 6.167969 6.554688 6.117188 6.625 5.988281 6.671875 C 5.96875 6.675781 5.945312 6.675781 5.921875 6.679688 C 5.980469 6.527344 6.082031 6.433594 6.199219 6.320312 Z M 6.199219 6.320312 "/>
<path style=" stroke:none;fill-rule:nonzero;fill:rgb(53.72549%,53.72549%,53.72549%);fill-opacity:1;" d="M 12.199219 5.519531 C 12.261719 5.566406 12.261719 5.566406 12.320312 5.640625 C 12.316406 5.761719 12.316406 5.761719 12.28125 5.878906 C 12.199219 5.953125 12.199219 5.953125 12.121094 6 C 12.105469 5.960938 12.09375 5.921875 12.078125 5.878906 C 12.132812 5.867188 12.1875 5.855469 12.238281 5.839844 C 12.226562 5.734375 12.214844 5.628906 12.199219 5.519531 Z M 12.199219 5.519531 "/>
<path style=" stroke:none;fill-rule:nonzero;fill:rgb(35.686275%,35.686275%,36.470588%);fill-opacity:1;" d="M 13.199219 7.921875 C 13.171875 7.996094 13.171875 7.996094 13.121094 8.078125 C 13.019531 8.113281 13.019531 8.113281 12.921875 8.121094 C 12.894531 8.09375 12.867188 8.066406 12.839844 8.039062 C 13.109375 7.921875 13.109375 7.921875 13.199219 7.921875 Z M 13.199219 7.921875 "/>
<path style=" stroke:none;fill-rule:nonzero;fill:rgb(34.117647%,34.117647%,34.117647%);fill-opacity:1;" d="M 12.960938 13.121094 C 12.988281 13.191406 12.988281 13.191406 13 13.28125 C 12.949219 13.351562 12.949219 13.351562 12.878906 13.398438 C 12.839844 13.398438 12.800781 13.398438 12.761719 13.398438 C 12.8125 13.285156 12.867188 13.207031 12.960938 13.121094 Z M 12.960938 13.121094 "/>
<path style=" stroke:none;fill-rule:nonzero;fill:rgb(49.803922%,49.803922%,50.980392%);fill-opacity:1;" d="M 4.800781 12.160156 C 4.878906 12.28125 4.878906 12.28125 4.878906 12.359375 C 4.90625 12.359375 4.933594 12.359375 4.960938 12.359375 C 4.984375 12.453125 4.984375 12.453125 5 12.558594 C 4.960938 12.621094 4.960938 12.621094 4.921875 12.679688 C 4.898438 12.625 4.878906 12.566406 4.859375 12.511719 C 4.84375 12.460938 4.84375 12.460938 4.828125 12.414062 C 4.800781 12.320312 4.800781 12.320312 4.800781 12.160156 Z M 4.800781 12.160156 "/>
<path style=" stroke:none;fill-rule:nonzero;fill:rgb(51.764706%,51.764706%,52.156863%);fill-opacity:1;" d="M 11 11.121094 C 11.046875 11.257812 11.03125 11.292969 10.984375 11.425781 C 10.972656 11.460938 10.960938 11.492188 10.949219 11.527344 C 10.933594 11.5625 10.933594 11.5625 10.921875 11.601562 C 10.90625 11.601562 10.894531 11.601562 10.878906 11.601562 C 10.875 11.542969 10.875 11.484375 10.871094 11.425781 C 10.871094 11.394531 10.871094 11.363281 10.867188 11.332031 C 10.882812 11.222656 10.914062 11.1875 11 11.121094 Z M 11 11.121094 "/>
<path style=" stroke:none;fill-rule:nonzero;fill:rgb(31.372549%,31.372549%,32.156863%);fill-opacity:1;" d="M 6.398438 8.761719 C 6.414062 8.761719 6.425781 8.761719 6.441406 8.761719 C 6.449219 8.929688 6.433594 9.046875 6.359375 9.199219 C 6.28125 9.078125 6.28125 9.078125 6.289062 9.003906 C 6.320312 8.917969 6.359375 8.839844 6.398438 8.761719 Z M 6.398438 8.761719 "/>
<path style=" stroke:none;fill-rule:nonzero;fill:rgb(41.176471%,41.176471%,41.568627%);fill-opacity:1;" d="M 10.320312 11.480469 C 10.347656 11.53125 10.371094 11.585938 10.398438 11.640625 C 10.347656 11.722656 10.296875 11.800781 10.238281 11.878906 C 10.214844 11.878906 10.1875 11.878906 10.160156 11.878906 C 10.203125 11.742188 10.25 11.609375 10.320312 11.480469 Z M 10.320312 11.480469 "/>
<path style=" stroke:none;fill-rule:nonzero;fill:rgb(34.901961%,35.686275%,36.862745%);fill-opacity:1;" d="M 13 10.519531 C 13.039062 10.519531 13.078125 10.519531 13.121094 10.519531 C 13.0625 10.65625 12.988281 10.742188 12.878906 10.839844 C 12.867188 10.800781 12.855469 10.761719 12.839844 10.71875 C 12.867188 10.695312 12.894531 10.667969 12.921875 10.640625 C 12.945312 10.601562 12.972656 10.5625 13 10.519531 Z M 13 10.519531 "/>
<path style=" stroke:none;fill-rule:nonzero;fill:rgb(37.254902%,37.254902%,38.431373%);fill-opacity:1;" d="M 11.398438 9.761719 C 11.292969 9.839844 11.1875 9.917969 11.078125 10 C 11.066406 9.945312 11.054688 9.894531 11.039062 9.839844 C 11.078125 9.851562 11.121094 9.867188 11.160156 9.878906 C 11.160156 9.839844 11.160156 9.800781 11.160156 9.761719 C 11.238281 9.71875 11.238281 9.71875 11.398438 9.761719 Z M 11.398438 9.761719 "/>
<path style=" stroke:none;fill-rule:nonzero;fill:rgb(43.529412%,43.529412%,43.529412%);fill-opacity:1;" d="M 8.398438 5.121094 C 8.335938 5.132812 8.269531 5.144531 8.199219 5.160156 C 8.199219 5.1875 8.199219 5.210938 8.199219 5.238281 C 8.128906 5.265625 8.128906 5.265625 8.039062 5.28125 C 8 5.253906 7.960938 5.226562 7.921875 5.199219 C 7.96875 5.179688 8.019531 5.15625 8.070312 5.136719 C 8.097656 5.125 8.125 5.113281 8.15625 5.101562 C 8.253906 5.078125 8.304688 5.089844 8.398438 5.121094 Z M 8.398438 5.121094 "/>
<path style=" stroke:none;fill-rule:nonzero;fill:rgb(47.843137%,47.843137%,47.843137%);fill-opacity:1;" d="M 11.679688 15.679688 C 11.71875 15.679688 11.757812 15.679688 11.800781 15.679688 C 11.800781 15.707031 11.800781 15.734375 11.800781 15.761719 C 11.828125 15.773438 11.851562 15.785156 11.878906 15.800781 C 11.761719 15.828125 11.640625 15.851562 11.519531 15.878906 C 11.53125 15.839844 11.546875 15.800781 11.558594 15.761719 C 11.640625 15.78125 11.640625 15.78125 11.71875 15.800781 C 11.707031 15.761719 11.695312 15.722656 11.679688 15.679688 Z M 11.679688 15.679688 "/>
<path style=" stroke:none;fill-rule:nonzero;fill:rgb(50.588235%,50.588235%,50.588235%);fill-opacity:1;" d="M 13.679688 11.71875 C 13.734375 11.871094 13.707031 12.003906 13.679688 12.160156 C 13.640625 12.160156 13.601562 12.160156 13.558594 12.160156 C 13.585938 12.007812 13.628906 11.867188 13.679688 11.71875 Z M 13.679688 11.71875 "/>
<path style=" stroke:none;fill-rule:nonzero;fill:rgb(28.235294%,28.235294%,29.019608%);fill-opacity:1;" d="M 7.839844 11.601562 C 7.863281 11.613281 7.886719 11.625 7.914062 11.636719 C 8.015625 11.6875 8.085938 11.6875 8.199219 11.679688 C 8.214844 11.71875 8.226562 11.757812 8.238281 11.800781 C 8.183594 11.796875 8.125 11.792969 8.066406 11.789062 C 8.035156 11.785156 8.003906 11.78125 7.96875 11.78125 C 7.867188 11.757812 7.828125 11.722656 7.761719 11.640625 C 7.785156 11.625 7.8125 11.613281 7.839844 11.601562 Z M 7.839844 11.601562 "/>
<path style=" stroke:none;fill-rule:nonzero;fill:rgb(57.647059%,57.647059%,57.647059%);fill-opacity:1;" d="M 13.800781 11.160156 C 13.8125 11.160156 13.828125 11.160156 13.839844 11.160156 C 13.894531 11.527344 13.894531 11.527344 13.839844 11.640625 C 13.800781 11.652344 13.761719 11.667969 13.71875 11.679688 C 13.746094 11.507812 13.773438 11.335938 13.800781 11.160156 Z M 13.800781 11.160156 "/>
<path style=" stroke:none;fill-rule:nonzero;fill:rgb(34.901961%,34.901961%,36.078431%);fill-opacity:1;" d="M 12.71875 10.839844 C 12.773438 10.851562 12.824219 10.867188 12.878906 10.878906 C 12.761719 10.980469 12.761719 10.980469 12.640625 11.078125 C 12.613281 11.066406 12.585938 11.054688 12.558594 11.039062 C 12.613281 10.972656 12.664062 10.90625 12.71875 10.839844 Z M 12.71875 10.839844 "/>
<path style=" stroke:none;fill-rule:nonzero;fill:rgb(41.176471%,41.176471%,41.176471%);fill-opacity:1;" d="M 13.492188 7.730469 C 13.527344 7.746094 13.527344 7.746094 13.558594 7.761719 C 13.46875 7.84375 13.46875 7.84375 13.359375 7.921875 C 13.265625 7.910156 13.265625 7.910156 13.199219 7.878906 C 13.378906 7.71875 13.378906 7.71875 13.492188 7.730469 Z M 13.492188 7.730469 "/>
<path style=" stroke:none;fill-rule:nonzero;fill:rgb(52.156863%,52.54902%,52.941176%);fill-opacity:1;" d="M 7.320312 7.480469 C 7.359375 7.507812 7.398438 7.53125 7.441406 7.558594 C 7.300781 7.679688 7.300781 7.679688 7.160156 7.800781 C 7.148438 7.761719 7.132812 7.722656 7.121094 7.679688 C 7.160156 7.679688 7.199219 7.679688 7.238281 7.679688 C 7.238281 7.640625 7.238281 7.601562 7.238281 7.558594 C 7.265625 7.558594 7.292969 7.558594 7.320312 7.558594 C 7.320312 7.535156 7.320312 7.507812 7.320312 7.480469 Z M 7.320312 7.480469 "/>
<path style=" stroke:none;fill-rule:nonzero;fill:rgb(21.960784%,22.352941%,23.137255%);fill-opacity:1;" d="M 7.488281 7.394531 C 7.523438 7.417969 7.523438 7.417969 7.558594 7.441406 C 7.457031 7.542969 7.382812 7.542969 7.238281 7.558594 C 7.238281 7.519531 7.238281 7.480469 7.238281 7.441406 C 7.378906 7.351562 7.378906 7.351562 7.488281 7.394531 Z M 7.488281 7.394531 "/>
<path style=" stroke:none;fill-rule:nonzero;fill:rgb(3.529412%,3.529412%,4.313725%);fill-opacity:1;" d="M 10.800781 6.679688 C 10.828125 6.691406 10.851562 6.707031 10.878906 6.71875 C 10.839844 6.71875 10.800781 6.71875 10.761719 6.71875 C 10.773438 6.707031 10.785156 6.695312 10.800781 6.679688 Z M 10.679688 6.761719 C 10.707031 6.773438 10.734375 6.785156 10.761719 6.800781 C 10.699219 6.898438 10.699219 6.898438 10.640625 7 C 10.613281 6.960938 10.585938 6.921875 10.558594 6.878906 C 10.574219 6.855469 10.585938 6.828125 10.601562 6.800781 C 10.625 6.8125 10.652344 6.828125 10.679688 6.839844 C 10.679688 6.8125 10.679688 6.789062 10.679688 6.761719 Z M 10.679688 6.761719 "/>
<path style=" stroke:none;fill-rule:nonzero;fill:rgb(31.372549%,31.764706%,31.764706%);fill-opacity:1;" d="M 11.878906 6.160156 C 11.894531 6.1875 11.90625 6.210938 11.921875 6.238281 C 11.8125 6.320312 11.707031 6.398438 11.601562 6.480469 C 11.648438 6.292969 11.648438 6.292969 11.761719 6.199219 C 11.800781 6.1875 11.839844 6.171875 11.878906 6.160156 Z M 11.878906 6.160156 "/>
<path style=" stroke:none;fill-rule:nonzero;fill:rgb(46.666667%,46.666667%,47.843137%);fill-opacity:1;" d="M 10.121094 11.878906 C 10.199219 11.960938 10.199219 11.960938 10.199219 12.078125 C 10.148438 12.148438 10.148438 12.148438 10.078125 12.199219 C 10.039062 12.199219 10 12.199219 9.960938 12.199219 C 10.011719 12.09375 10.066406 11.988281 10.121094 11.878906 Z M 10.121094 11.878906 "/>
<path style=" stroke:none;fill-rule:nonzero;fill:rgb(45.882353%,45.882353%,45.882353%);fill-opacity:1;" d="M 10.441406 4 C 10.671875 4.144531 10.671875 4.144531 10.761719 4.28125 C 10.707031 4.28125 10.65625 4.28125 10.601562 4.28125 C 10.601562 4.242188 10.601562 4.199219 10.601562 4.160156 C 10.558594 4.160156 10.519531 4.160156 10.480469 4.160156 C 10.46875 4.105469 10.453125 4.054688 10.441406 4 Z M 10.441406 4 "/>
<path style=" stroke:none;fill-rule:nonzero;fill:rgb(32.54902%,32.54902%,33.333333%);fill-opacity:1;" d="M 10.359375 9.921875 C 10.398438 9.933594 10.4375 9.945312 10.480469 9.960938 C 10.46875 10.050781 10.453125 10.144531 10.441406 10.238281 C 10.359375 10.160156 10.359375 10.160156 10.355469 10.035156 C 10.355469 9.996094 10.359375 9.960938 10.359375 9.921875 Z M 10.359375 9.921875 "/>
<path style=" stroke:none;fill-rule:nonzero;fill:rgb(35.294118%,35.294118%,36.470588%);fill-opacity:1;" d="M 10.71875 7.320312 C 10.664062 7.445312 10.640625 7.480469 10.519531 7.558594 C 10.507812 7.519531 10.492188 7.480469 10.480469 7.441406 C 10.585938 7.320312 10.585938 7.320312 10.71875 7.320312 Z M 10.71875 7.320312 "/>
<path style=" stroke:none;fill-rule:nonzero;fill:rgb(21.960784%,22.352941%,23.137255%);fill-opacity:1;" d="M 7.558594 7.160156 C 7.597656 7.171875 7.640625 7.1875 7.679688 7.199219 C 7.679688 7.253906 7.679688 7.304688 7.679688 7.359375 C 7.640625 7.375 7.601562 7.386719 7.558594 7.398438 C 7.515625 7.25 7.515625 7.25 7.558594 7.160156 Z M 7.558594 7.160156 "/>
<path style=" stroke:none;fill-rule:nonzero;fill:rgb(44.705882%,45.098039%,45.882353%);fill-opacity:1;" d="M 14.878906 13 C 14.921875 13.121094 14.921875 13.121094 14.863281 13.246094 C 14.832031 13.304688 14.832031 13.304688 14.800781 13.359375 C 14.785156 13.359375 14.773438 13.359375 14.761719 13.359375 C 14.757812 13.238281 14.761719 13.15625 14.800781 13.039062 C 14.828125 13.027344 14.851562 13.011719 14.878906 13 Z M 14.878906 13 "/>
<path style=" stroke:none;fill-rule:nonzero;fill:rgb(45.098039%,45.098039%,45.490196%);fill-opacity:1;" d="M 10.761719 10.71875 C 10.773438 10.71875 10.785156 10.71875 10.800781 10.71875 C 10.8125 10.8125 10.8125 10.8125 10.800781 10.921875 C 10.699219 10.992188 10.699219 10.992188 10.601562 11.039062 C 10.644531 10.921875 10.6875 10.828125 10.761719 10.71875 Z M 10.761719 10.71875 "/>
<path style=" stroke:none;fill-rule:nonzero;fill:rgb(4.705882%,5.098039%,5.882353%);fill-opacity:1;" d="M 13.359375 9.078125 C 13.425781 9.078125 13.492188 9.078125 13.558594 9.078125 C 13.546875 9.144531 13.535156 9.210938 13.519531 9.28125 C 13.421875 9.242188 13.421875 9.242188 13.320312 9.199219 C 13.332031 9.160156 13.347656 9.121094 13.359375 9.078125 Z M 13.359375 9.078125 "/>
<path style=" stroke:none;fill-rule:nonzero;fill:rgb(33.333333%,33.333333%,33.333333%);fill-opacity:1;" d="M 10.558594 8.71875 C 10.597656 8.734375 10.640625 8.746094 10.679688 8.761719 C 10.574219 8.953125 10.574219 8.953125 10.441406 9 C 10.515625 8.765625 10.515625 8.765625 10.558594 8.71875 Z M 10.558594 8.71875 "/>
</g>
</svg>
